<svg width="54" height="68" viewBox="0 0 54 68" fill="none" xmlns="http://www.w3.org/2000/svg">
<path d="M26.6445 37.6924C29.5619 37.6924 32.3598 36.5335 34.4227 34.4706C36.4856 32.4077 37.6445 29.6098 37.6445 26.6924C37.6445 23.775 36.4856 20.9771 34.4227 18.9142C32.3598 16.8513 29.5619 15.6924 26.6445 15.6924C23.7272 15.6924 20.9293 16.8513 18.8664 18.9142C16.8035 20.9771 15.6445 23.775 15.6445 26.6924C15.6445 29.6098 16.8035 32.4077 18.8664 34.4706C20.9293 36.5335 23.7272 37.6924 26.6445 37.6924Z" stroke="#A8853F" stroke-width="1.5" stroke-linecap="round" stroke-linejoin="round"/>
<path d="M47.9094 41.1317H47.869C50.5158 37.2523 52.0474 32.7209 52.297 28.0312C52.5467 23.3415 51.5049 18.6732 49.2851 14.5346C47.0652 10.3961 43.7524 6.94585 39.7074 4.55973C35.6624 2.17361 31.0403 0.943039 26.3443 1.00203C21.6483 1.06101 17.0586 2.40729 13.0748 4.89426C9.09097 7.38124 5.86588 10.9136 3.75068 15.1066C1.63549 19.2996 0.711271 23.9927 1.07867 28.6746C1.44607 33.3566 3.09101 37.848 5.83436 41.6597H5.77569L6.28902 42.2867C6.65569 42.7524 7.02236 43.2071 7.38902 43.6471L26.6427 67.0257L45.4527 44.1164C46.164 43.3501 46.824 42.5434 47.4327 41.7001L47.9094 41.1317Z" stroke="#A8853F" stroke-width="1.5" stroke-linecap="round" stroke-linejoin="round"/>
</svg>
