<svg width="68" height="68" viewBox="0 0 68 68" fill="none" xmlns="http://www.w3.org/2000/svg">
<path d="M1 25.75H67M34 13.375V1M13.375 13.375V1M54.625 13.375V1M5.125 67H62.875C63.969 67 65.0182 66.5654 65.7918 65.7918C66.5654 65.0182 67 63.969 67 62.875V13.375C67 12.281 66.5654 11.2318 65.7918 10.4582C65.0182 9.6846 63.969 9.25 62.875 9.25H5.125C4.03098 9.25 2.98177 9.6846 2.20819 10.4582C1.4346 11.2318 1 12.281 1 13.375V62.875C1 63.969 1.4346 65.0182 2.20819 65.7918C2.98177 66.5654 4.03098 67 5.125 67ZM17.5 38.125H17.5413V38.1663H17.5V38.125ZM34 38.125H34.0413V38.1663H34V38.125ZM50.5 38.125H50.5413V38.1663H50.5V38.125ZM17.5 54.625H17.5413V54.6663H17.5V54.625ZM34 54.625H34.0413V54.6663H34V54.625ZM50.5 54.625H50.5413V54.6663H50.5V54.625Z" stroke="#A8853F" stroke-width="1.5" stroke-linecap="round" stroke-linejoin="round"/>
</svg>
