<svg width="68" height="68" viewBox="0 0 68 68" fill="none" xmlns="http://www.w3.org/2000/svg">
<path opacity="0.66" d="M19.451 33.9963L26.7255 41.2708L44.9118 23.0846M61.5947 42.4148L64.869 39.1406C65.5446 38.465 66.0805 37.6631 66.4462 36.7804C66.8118 35.8978 67 34.9517 67 33.9963C67 33.0409 66.8118 32.0949 66.4462 31.2123C66.0805 30.3296 65.5446 29.5276 64.869 28.8521L61.5947 25.5779C60.9192 24.9023 60.3834 24.1003 60.0179 23.2176C59.6524 22.335 59.4643 21.389 59.4644 20.4336V15.8101C59.4644 13.8808 58.698 12.0305 57.3338 10.6662C55.9695 9.30199 54.1192 8.53557 52.1899 8.53557H47.5627C46.6073 8.53586 45.6613 8.34787 44.7786 7.98235C43.8959 7.61682 43.0939 7.08092 42.4185 6.40528L39.1442 3.13102C38.4687 2.45541 37.6667 1.91948 36.7841 1.55384C35.9014 1.18819 34.9554 1 34 1C33.0446 1 32.0986 1.18819 31.2159 1.55384C30.3333 1.91948 29.5313 2.45541 28.8558 3.13102L25.5815 6.40528C24.9059 7.08076 24.1039 7.61655 23.2213 7.98207C22.3386 8.34758 21.3926 8.53566 20.4373 8.53557H15.8137C14.8581 8.53509 13.9118 8.72289 13.0288 9.08825C12.1458 9.45362 11.3434 9.98937 10.6675 10.6649C9.99163 11.3405 9.45546 12.1426 9.08966 13.0254C8.72385 13.9082 8.53557 14.8545 8.53557 15.8101V20.4373C8.53557 22.3696 7.76925 24.2176 6.40528 25.5815L3.13102 28.8558C2.45541 29.5313 1.91948 30.3333 1.55384 31.2159C1.18819 32.0986 1 33.0446 1 34C1 34.9554 1.18819 35.9014 1.55384 36.7841C1.91948 37.6667 2.45541 38.4687 3.13102 39.1442L6.40528 42.4185C7.76925 43.7824 8.53557 45.6304 8.53557 47.5627V52.1899C8.53557 54.1192 9.30199 55.9695 10.6662 57.3338C12.0305 58.698 13.8808 59.4644 15.8101 59.4644H20.4373C22.3696 59.4644 24.2176 60.2308 25.5815 61.5947L28.8558 64.869C29.5313 65.5446 30.3333 66.0805 31.2159 66.4462C32.0986 66.8118 33.0446 67 34 67C34.9554 67 35.9014 66.8118 36.7841 66.4462C37.6667 66.0805 38.4687 65.5446 39.1442 64.869L42.4185 61.5947C43.7831 60.2309 45.6334 59.4646 47.5627 59.4644H52.1899C54.1192 59.4644 55.9695 58.698 57.3338 57.3338C58.698 55.9695 59.4644 54.1192 59.4644 52.1899V47.5627C59.4644 45.6304 60.2307 43.7788 61.5947 42.4148Z" stroke="#A8853F" stroke-width="1.5" stroke-linecap="round" stroke-linejoin="round"/>
</svg>
