<svg width="68" height="68" viewBox="0 0 68 68" fill="none" xmlns="http://www.w3.org/2000/svg">
<path d="M29.875 11.3125H38.125M29.875 58.75H38.125M9.25 38.125V29.875M58.75 38.125V29.875M5.125 17.5H13.375C14.469 17.5 15.5182 17.0654 16.2918 16.2918C17.0654 15.5182 17.5 14.469 17.5 13.375V5.125C17.5 4.03098 17.0654 2.98177 16.2918 2.20819C15.5182 1.4346 14.469 1 13.375 1H5.125C4.03098 1 2.98177 1.4346 2.20819 2.20819C1.4346 2.98177 1 4.03098 1 5.125V13.375C1 14.469 1.4346 15.5182 2.20819 16.2918C2.98177 17.0654 4.03098 17.5 5.125 17.5ZM5.125 67H13.375C14.469 67 15.5182 66.5654 16.2918 65.7918C17.0654 65.0182 17.5 63.969 17.5 62.875V54.625C17.5 53.531 17.0654 52.4818 16.2918 51.7082C15.5182 50.9346 14.469 50.5 13.375 50.5H5.125C4.03098 50.5 2.98177 50.9346 2.20819 51.7082C1.4346 52.4818 1 53.531 1 54.625V62.875C1 63.969 1.4346 65.0182 2.20819 65.7918C2.98177 66.5654 4.03098 67 5.125 67ZM54.625 67H62.875C63.969 67 65.0182 66.5654 65.7918 65.7918C66.5654 65.0182 67 63.969 67 62.875V54.625C67 53.531 66.5654 52.4818 65.7918 51.7082C65.0182 50.9346 63.969 50.5 62.875 50.5H54.625C53.531 50.5 52.4818 50.9346 51.7082 51.7082C50.9346 52.4818 50.5 53.531 50.5 54.625V62.875C50.5 63.969 50.9346 65.0182 51.7082 65.7918C52.4818 66.5654 53.531 67 54.625 67ZM54.625 17.5H62.875C63.969 17.5 65.0182 17.0654 65.7918 16.2918C66.5654 15.5182 67 14.469 67 13.375V5.125C67 4.03098 66.5654 2.98177 65.7918 2.20819C65.0182 1.4346 63.969 1 62.875 1H54.625C53.531 1 52.4818 1.4346 51.7082 2.20819C50.9346 2.98177 50.5 4.03098 50.5 5.125V13.375C50.5 14.469 50.9346 15.5182 51.7082 16.2918C52.4818 17.0654 53.531 17.5 54.625 17.5Z" stroke="#A8853F" stroke-width="1.5" stroke-linecap="round" stroke-linejoin="round"/>
</svg>
