<svg width="68" height="68" viewBox="0 0 68 68" fill="none" xmlns="http://www.w3.org/2000/svg">
<path d="M40.6 53.5236C41.5653 54.6332 42.8605 55.4046 44.2919 55.7264C45.6696 56.2128 47.1804 56.1589 48.5199 55.5756C49.8595 54.9923 50.9282 53.923 51.5106 52.5831C52.2201 50.0462 49.6709 47.2742 46.3874 46.474C43.1039 45.6737 40.5711 42.9224 41.2682 40.3649C41.8507 39.025 42.9194 37.9557 44.2589 37.3724C45.5985 36.7891 47.1093 36.7352 48.487 37.2216C49.9019 37.5393 51.1847 38.2941 52.15 39.3831M46.5482 55.9533V58.4984M46.5482 34V36.9906M1 46.375V62.875M13.375 38.125V62.875M9.25 19.5625L27.8125 5.125L42.25 15.4375L58.75 1M58.75 1H44.3125M58.75 1V13.375M67 46.375C67 51.8451 64.827 57.0911 60.9591 60.9591C57.0911 64.827 51.8451 67 46.375 67C40.9049 67 35.6589 64.827 31.7909 60.9591C27.923 57.0911 25.75 51.8451 25.75 46.375C25.75 40.9049 27.923 35.6589 31.7909 31.7909C35.6589 27.923 40.9049 25.75 46.375 25.75C51.8451 25.75 57.0911 27.923 60.9591 31.7909C64.827 35.6589 67 40.9049 67 46.375Z" stroke="#A8853F" stroke-width="1.5" stroke-linecap="round" stroke-linejoin="round"/>
</svg>
