<svg width="69" height="68" viewBox="0 0 69 68" fill="none" xmlns="http://www.w3.org/2000/svg">
<path d="M25.6302 35.4155C25.6302 35.4155 30.8435 22.5342 24.7281 13.3502C18.6129 4.16624 3.72269 0.60579 2.93531 1.16785C2.14793 1.72994 -1.72827 15.0387 4.38697 24.2226C10.5022 33.4067 25.6302 35.4155 25.6302 35.4155ZM25.6302 35.4155C27.7156 39.5866 34.6442 46.0338 34.6442 58.5471V66.8893C34.6442 58.5471 32.849 52.6292 43.2767 42.2014M43.2767 42.2014C43.2767 42.2014 41.2354 30.5691 47.9509 24.0243C54.6668 17.4795 66.6804 17.5724 67.4303 18.6674C68.1803 19.7625 69.231 30.529 62.9218 36.6776C56.2063 43.2225 43.2767 42.2014 43.2767 42.2014Z" stroke="#A8853F" stroke-width="1.5" stroke-linecap="round" stroke-linejoin="round"/>
</svg>
