<svg width="143" height="100" viewBox="0 0 143 100" fill="none" xmlns="http://www.w3.org/2000/svg">
<path d="M103.948 19.0605V20.6048H84.8086C84.826 20.3457 84.8313 20.0865 84.8313 19.8327C84.8313 19.5789 84.826 19.3117 84.8086 19.0605H103.948Z" fill="#F4F1ED"/>
<path d="M102.905 2.38965L83.362 13.6725C83.1416 13.225 82.8824 12.7761 82.5898 12.3393L99.8173 2.38965H102.903H102.905Z" fill="#F4F1ED"/>
<path d="M82.107 2.38965L78.6484 8.38775C78.2222 8.10321 77.7694 7.84405 77.3125 7.61828L80.3343 2.38965H82.107Z" fill="#F4F1ED"/>
<path d="M71.9193 2.38965V6.16618C71.6882 6.1555 71.417 6.14347 71.1471 6.14347C70.8773 6.14347 70.6195 6.15416 70.375 6.16618V2.38965H71.9193Z" fill="#F4F1ED"/>
<path d="M64.99 7.61828C64.5171 7.85206 64.0656 8.11122 63.6488 8.38775L60.1875 2.38965H61.9696L64.9913 7.61828H64.99Z" fill="#F4F1ED"/>
<path d="M59.7014 12.3313V12.3339C59.4222 12.7628 59.1631 13.213 58.9346 13.6698L39.3867 2.38965H42.4766L59.7014 12.3313Z" fill="#F4F1ED"/>
<path d="M57.4595 19.8327C57.4595 20.0999 57.4702 20.3657 57.4822 20.6048H38.4219V19.0605H57.4822C57.4715 19.2917 57.4595 19.5562 57.4595 19.8327Z" fill="#F4F1ED"/>
<path d="M83.4245 19.8318C83.4245 20.0883 83.4165 20.3448 83.3991 20.6039C83.1961 23.8675 81.7133 26.7877 79.4503 28.865L71.1892 20.6066L62.8881 28.9078C60.5997 26.8198 59.0995 23.8848 58.8965 20.6039C58.8818 20.3448 58.8711 20.0883 58.8711 19.8318C58.8711 19.5753 58.8818 19.3161 58.8965 19.0596C59.0007 17.3885 59.4428 15.8014 60.1562 14.3774C60.3846 13.9152 60.6411 13.4663 60.923 13.0388H60.9283C61.8301 11.6802 62.9976 10.5127 64.3562 9.61097C64.7824 9.32375 65.2299 9.06726 65.6948 8.8415C67.1188 8.12547 68.7045 7.68329 70.377 7.57909C70.6335 7.5644 70.89 7.55371 71.1491 7.55371C71.4083 7.55371 71.6621 7.5644 71.9186 7.57909C73.5925 7.68329 75.1822 8.12547 76.6089 8.8415C77.0711 9.06726 77.5199 9.32375 77.9448 9.6083V9.61097C79.298 10.518 80.4669 11.6856 81.3726 13.0442C81.6598 13.473 81.919 13.9152 82.1448 14.3774C82.8608 15.8014 83.2976 17.3885 83.3991 19.0596C83.4165 19.3161 83.4245 19.5753 83.4245 19.8318Z" fill="#F4F1ED"/>
<path d="M106.335 45.8438H36.0312V47.388H106.335V45.8438Z" fill="#F4F1ED"/>
<path d="M103.947 32.4434V44.998H92.6478L95.7618 40.6764H88.4078L94.291 37.7655L92.2671 34.9949L94.665 29.8103L94.1293 24.8075L94.1039 24.7821L84.2358 34.6529L83.7375 35.1498L82.6461 36.2453L73.8948 44.998H69.7148L72.8287 40.6764H65.4747L71.3579 37.7655L69.3341 34.9949L71.732 29.8103L71.3152 25.9096L71.1936 24.7901L71.1856 24.7821L66.498 29.475L65.3505 30.6172L60.8192 35.1552L59.7278 36.2453L50.9751 44.998H46.7818L49.8957 40.6764H42.5417L48.4249 37.7655L46.4011 34.9949L48.8003 29.8103L48.2646 24.7821L38.4219 34.6275V32.4407L48.2646 22.6006L59.2228 33.5655L59.7225 34.0638L71.1856 22.6006L77.2799 28.6922L78.3847 29.7996L82.6461 34.0584L83.1457 33.5628L94.1039 22.6006L103.947 32.4434Z" fill="#F4F1ED"/>
<path d="M36.0312 0V47.3877H106.335V0H36.0312ZM37.5755 45.8434V1.54428H104.793V45.8421H37.5755V45.8434Z" fill="#F4F1ED"/>
<path d="M7.14962 77.6904C7.14962 77.8587 7.00534 77.9549 6.76622 77.9549C5.54256 77.9549 4.82252 77.7866 3.59886 77.7866C2.37519 77.7866 1.63111 77.9549 0.383397 77.9549C0.166985 77.9549 0 77.8588 0 77.6664C0 77.5221 0.0240458 77.4019 0.120229 77.3778C0.76813 77.1855 2.30305 77.6891 2.30305 74.2586V64.8299C2.30305 61.3994 0.76813 61.927 0.120229 61.7347C0.0480916 61.7106 0.0240458 61.5904 0 61.4461C0 61.2538 0.168321 61.1576 0.383397 61.1576C1.75134 61.1576 3.14199 61.1816 4.48588 61.1816C4.79714 61.1576 5.15782 61.1576 5.56527 61.1576C7.91641 61.1576 9.23626 61.1576 11.6115 60.8223C11.7798 60.8223 11.9227 60.9184 11.9708 61.1108L12.7149 64.158C12.7389 64.2782 12.6908 64.3503 12.5466 64.3503C12.4263 64.3503 12.3061 64.2782 12.258 64.182C11.2508 62.3345 9.93092 62.1421 6.76355 62.1421H4.86794C4.84389 62.2383 4.84389 62.3585 4.84389 62.5015V67.9719H7.21908C9.32977 67.9719 9.73855 66.461 9.83473 66.0282C9.90687 65.6448 9.97901 65.5727 10.146 65.5486C10.3143 65.5486 10.4345 65.7169 10.4105 65.9561C10.3143 67.2278 10.2662 67.8998 10.2662 68.5717C10.2662 69.2437 10.3143 69.9397 10.4105 71.2114V71.2835C10.4105 71.4759 10.3143 71.6189 10.17 71.6189C10.0017 71.5948 9.90553 71.4746 9.81069 71.1393C9.7145 70.7318 9.30706 69.1715 7.21908 69.1715H4.84389V74.2813C4.84389 77.7118 6.37882 77.1841 7.02672 77.3765C7.09886 77.4005 7.14695 77.5208 7.14695 77.6878L7.14962 77.6904Z" fill="#F4F1ED"/>
<path d="M18.282 65.7188C21.233 65.7188 24.208 67.7827 24.208 71.9333C24.208 76.0838 21.233 78.1478 18.282 78.1478C15.3311 78.1478 12.332 76.0598 12.332 71.9333C12.332 67.8067 15.307 65.7188 18.282 65.7188ZM18.282 77.234C19.8891 77.234 21.4975 75.3865 21.4975 71.6915C21.4975 68.2369 19.8904 66.5096 18.282 66.5096C16.6736 66.5096 15.0425 68.2369 15.0425 71.6915C15.0425 75.3865 16.6496 77.234 18.282 77.234Z" fill="#F4F1ED"/>
<path d="M28.789 69.5324L28.8131 74.1145C28.8131 75.266 29.1243 76.6099 30.8289 76.6099C32.5335 76.6099 34.1165 75.7216 34.0925 72.963V68.9086C34.0925 67.013 33.3965 67.3736 32.7726 67.2053C32.7245 67.1813 32.5802 67.0851 32.5802 66.9408C32.5802 66.8206 32.6764 66.7004 32.9155 66.6055C33.4673 66.3891 35.6033 65.5502 36.131 65.5502C36.3715 65.5502 36.5144 65.7185 36.5144 66.0297L36.4904 74.2828C36.4904 77.0895 37.2344 76.7301 37.8583 76.7301C38.0747 76.7301 38.3138 76.7782 38.3138 77.0414C38.3138 77.2097 38.1936 77.4008 37.9785 77.4248C36.7308 77.5691 35.8438 77.9765 35.268 77.9765C34.3089 77.9765 34.1165 77.712 34.0925 76.1771C32.989 77.4729 31.2136 78.1448 29.5825 78.1448C26.7278 78.1448 26.3911 75.962 26.3911 73.7057V68.9072C26.3911 67.0116 25.6951 67.3723 25.0472 67.204C24.9991 67.1799 24.8789 67.0838 24.8789 66.9395C24.8789 66.8433 24.951 66.699 25.2142 66.6042C25.79 66.3637 27.878 65.5488 28.4297 65.5488C28.6701 65.5488 28.8131 65.7171 28.789 66.0284V69.5311V69.5324Z" fill="#F4F1ED"/>
<path d="M43.1832 65.5498C43.4236 65.5498 43.5425 65.7181 43.5425 66.0294V68.0212C44.5979 66.6052 46.3492 65.7422 47.7652 65.7422C48.6055 65.7422 49.5406 66.0534 49.5406 67.038C49.5406 67.6859 49.0851 68.3338 48.2929 68.3338C47.5007 68.3338 46.8047 67.758 45.8937 67.758C44.4776 67.758 43.5666 68.8615 43.5425 70.709V74.2838C43.5425 77.7143 44.8143 77.1626 45.4862 77.379C45.5343 77.4031 45.5824 77.5233 45.5824 77.6903C45.5824 77.8573 45.4381 77.9548 45.2231 77.9548C43.9994 77.9548 43.5198 77.7865 42.2962 77.7865C41.0725 77.7865 40.6891 77.9548 39.4414 77.9548C39.249 77.9548 39.082 77.8586 39.082 77.6662C39.1061 77.522 39.1301 77.4017 39.2023 77.3777C39.8502 77.1613 41.146 77.689 41.146 74.2584V68.9082C41.146 67.0126 40.4259 67.3733 39.8021 67.205C39.754 67.1809 39.6337 67.0847 39.6337 66.9405C39.6337 66.8202 39.7059 66.7 39.9691 66.6051C40.5448 66.3647 42.6328 65.5498 43.1845 65.5498H43.1832Z" fill="#F4F1ED"/>
<path d="M66.6014 60.2718C66.7698 60.2718 66.9367 60.3921 66.9608 60.5604L67.8251 64.4946C67.8732 64.6629 67.7289 64.7831 67.5606 64.7831C67.4644 64.7831 67.3201 64.711 67.2493 64.5667C66.0738 62.432 64.106 61.5917 62.3787 61.5917C60.6514 61.5917 59.1152 62.5028 59.1152 63.8226C59.1152 67.9011 68.4236 68.9564 68.4236 73.3955C68.4236 76.6818 64.8488 77.9536 61.4904 77.9536C57.1474 77.9536 58.0598 78.3129 57.5322 78.3129C57.3398 78.3129 57.1728 78.1927 57.1488 78.0244L56.6211 72.9146V72.8906C56.6211 72.7463 56.7654 72.6261 56.9096 72.6261C57.0299 72.6261 57.1501 72.6742 57.2209 72.8425C58.852 77.0412 60.4604 77.1614 62.5951 77.1614C64.3946 77.1614 66.1699 76.273 66.1699 74.8583C66.1699 71.043 56.8616 69.6043 56.8616 65.2133C56.8616 62.118 59.8125 60.7982 62.547 60.7982C66.4812 60.7982 66.0497 60.2705 66.6014 60.2705V60.2718Z" fill="#F4F1ED"/>
<path d="M80.0362 75.5059C80.2527 75.5059 80.4677 75.8171 80.3248 76.0336C79.5086 77.4736 77.9256 78.1683 76.03 78.1683C72.1198 78.1683 70.0078 75.0009 70.0078 71.8816C70.0078 68.7624 72.0477 65.7393 76.3172 65.7393C78.9569 65.7393 81.1156 67.7792 81.1156 70.2024V71.2818H72.4778C72.6221 73.9215 74.2051 76.7523 77.084 76.7523C78.2355 76.7523 79.2427 76.4878 79.7945 75.6488C79.8666 75.5526 79.9628 75.5045 80.0349 75.5045L80.0362 75.5059ZM78.5013 70.2038C78.4051 67.9969 77.3738 66.7732 75.4782 66.7732C73.5826 66.7732 72.6716 68.3322 72.4792 70.2038H78.5013Z" fill="#F4F1ED"/>
<path d="M91.3385 78.2185C90.2111 78.2185 89.3227 77.6667 89.3227 76.419C88.4584 77.6427 87.1639 78.1704 85.8922 78.1704C83.4689 78.1704 82.125 76.6354 82.125 74.9549C82.125 73.0112 83.9485 70.9005 87.9788 70.9005H89.2987V69.5326C89.2746 67.2055 88.4584 66.5335 86.9956 66.5335C85.2924 66.5335 85.8681 68.7885 84.38 68.7885C83.5878 68.7885 83.0601 68.3329 83.0601 67.7572C83.0601 66.8461 84.4281 65.6465 88.1939 65.6465C90.2578 65.6465 91.7206 66.6537 91.7206 69.5806L91.7447 75.9862C91.7447 76.4658 91.9611 77.0415 92.5128 77.0415C92.6811 77.0415 92.8721 76.9935 93.0886 76.8973C93.3531 76.753 93.6162 77.0175 93.6162 77.2807C93.6162 77.9767 91.8168 78.2158 91.3372 78.2158L91.3385 78.2185ZM89.3 72.9391V71.9558H87.1653C85.2216 71.9558 84.4548 72.9631 84.4548 74.0665C84.4548 75.3623 85.5101 76.7543 86.9261 76.7543C88.1258 76.7543 89.3013 75.723 89.3013 72.9391H89.3Z" fill="#F4F1ED"/>
<path d="M98.7967 66.677C97.6692 66.677 96.8049 67.1566 96.8049 67.9488C96.8049 70.5164 104.314 71.8589 104.314 74.691C104.314 77.2105 101.579 77.9545 99.1801 77.9545C96.2051 77.9545 96.4696 78.0748 95.9165 78.0748C95.652 78.0748 95.437 77.8343 95.4129 77.6673L94.8372 74.0204V73.9963C94.8372 73.828 94.9814 73.7078 95.1484 73.7078C95.2446 73.7078 95.3648 73.7799 95.437 73.9242C96.5885 76.3956 98.2196 77.2118 99.5394 77.2118C100.859 77.2118 101.794 76.4437 101.794 75.7236C101.794 73.3244 94.7891 72.269 94.7891 69.0536C94.7891 66.9188 96.877 65.8381 99.0599 65.8381C100.907 65.8381 101.267 65.4307 102.035 65.4307C102.299 65.4307 102.514 65.5509 102.587 65.7192L103.427 68.383V68.4311C103.427 68.5753 103.259 68.6715 103.043 68.6715C102.875 68.6715 102.684 68.6234 102.564 68.4791C101.509 67.2314 99.9963 66.6797 98.7967 66.6797V66.677Z" fill="#F4F1ED"/>
<path d="M111.825 65.7188C114.776 65.7188 117.751 67.7827 117.751 71.9333C117.751 76.0838 114.776 78.1478 111.825 78.1478C108.874 78.1478 105.875 76.0598 105.875 71.9333C105.875 67.8067 108.85 65.7188 111.825 65.7188ZM111.825 77.234C113.432 77.234 115.04 75.3865 115.04 71.6915C115.04 68.2369 113.433 66.5096 111.825 66.5096C110.217 66.5096 108.585 68.2369 108.585 71.6915C108.585 75.3865 110.193 77.234 111.825 77.234Z" fill="#F4F1ED"/>
<path d="M121.854 65.5498C122.094 65.5498 122.213 65.7181 122.213 66.0294V67.6124C123.317 66.3166 125.092 65.6447 126.723 65.6447C129.578 65.6447 129.914 67.8275 129.914 70.1078V74.2825C129.914 77.713 131.21 77.1613 131.858 77.3777C131.93 77.4017 131.954 77.522 131.978 77.6662C131.978 77.8586 131.81 77.9548 131.619 77.9548C130.371 77.9548 129.916 77.7865 128.668 77.7865C127.42 77.7865 127.085 77.9548 125.837 77.9548C125.597 77.9548 125.454 77.8346 125.454 77.6435C125.478 77.5233 125.502 77.4031 125.574 77.379C126.222 77.1626 127.542 77.6903 127.518 74.2597L127.494 69.7017C127.494 68.5502 127.158 67.2063 125.454 67.2063C123.749 67.2063 122.238 68.0466 122.214 70.709V74.2838C122.214 77.7143 123.486 77.1626 124.158 77.379C124.206 77.4031 124.254 77.5233 124.254 77.6903C124.254 77.8573 124.11 77.9548 123.895 77.9548C122.671 77.9548 122.192 77.7865 120.968 77.7865C119.744 77.7865 119.361 77.9548 118.113 77.9548C117.921 77.9548 117.754 77.8586 117.754 77.6662C117.778 77.522 117.802 77.4017 117.874 77.3777C118.522 77.1613 119.818 77.689 119.818 74.2584V68.9082C119.818 67.0126 119.098 67.3733 118.474 67.205C118.426 67.1809 118.306 67.0847 118.306 66.9405C118.306 66.8202 118.378 66.7 118.641 66.6051C119.217 66.3647 121.305 65.5498 121.856 65.5498H121.854Z" fill="#F4F1ED"/>
<path d="M136.851 66.677C135.724 66.677 134.86 67.1566 134.86 67.9488C134.86 70.5164 142.369 71.8589 142.369 74.691C142.369 77.2105 139.634 77.9545 137.235 77.9545C134.26 77.9545 134.524 78.0748 133.971 78.0748C133.707 78.0748 133.492 77.8343 133.468 77.6673L132.892 74.0204V73.9963C132.892 73.828 133.036 73.7078 133.203 73.7078C133.299 73.7078 133.42 73.7799 133.492 73.9242C134.643 76.3956 136.274 77.2118 137.594 77.2118C138.914 77.2118 139.849 76.4437 139.849 75.7236C139.849 73.3244 132.844 72.269 132.844 69.0536C132.844 66.9188 134.932 65.8381 137.115 65.8381C138.962 65.8381 139.321 65.4307 140.09 65.4307C140.354 65.4307 140.569 65.5509 140.641 65.7192L141.482 68.383V68.4311C141.482 68.5753 141.313 68.6715 141.098 68.6715C140.93 68.6715 140.739 68.6234 140.619 68.4791C139.563 67.2314 138.051 66.6797 136.851 66.6797V66.677Z" fill="#F4F1ED"/>
<path d="M37.2642 85.0343C37.2482 85.0677 37.2148 85.0837 37.1827 85.0998H37.0358C35.3152 85.2641 30.9709 91.5908 30.5942 94.5578C30.5447 94.9506 30.6102 95.1803 30.84 95.1803C30.9869 95.1803 31.7738 94.4095 32.3482 93.7215L32.8558 93.1311C32.8718 93.0977 32.9052 93.0817 32.9373 93.0817H33.0188C33.1003 93.0817 33.1337 93.1631 33.0842 93.2286L32.5592 93.8511C31.8379 94.7368 30.8547 95.7521 30.2148 95.7521C29.8047 95.7521 29.5589 95.3754 29.6417 94.6861C29.9209 92.5393 32.248 87.9332 34.8049 85.8839C32.5926 87.1784 30.2322 89.8502 28.6745 92.0303C28.1335 93.9967 27.6085 95.6532 26.9205 95.6532C26.7896 95.6532 26.6253 95.5383 26.6253 95.2765C26.6253 94.8009 27.2972 93.6534 27.543 93.2607C27.9852 91.0805 28.7066 87.7702 30.0184 86.1471C27.3627 88.8349 25.757 95.8349 22.1341 95.8349C21.3152 95.8349 21.0039 95.4582 21.0039 95.1135C21.0039 94.8183 21.2497 94.5391 21.561 94.5391C22.0192 94.5391 22.0686 94.7849 22.118 95.0467C22.1514 95.2605 22.1995 95.4889 22.6751 95.4889C24.7738 95.4889 26.9205 88.4568 29.953 85.8345C27.6739 86.2767 24.7083 86.982 24.7083 88.7681C24.7083 89.2597 25.0035 89.6204 25.4951 89.6204C25.9867 89.6204 26.3634 89.2597 26.3634 88.7841C26.3634 88.6692 26.3474 88.5383 26.314 88.374C26.314 88.3406 26.3474 88.2925 26.3795 88.2752L26.4944 88.2418C26.5438 88.2257 26.5759 88.2578 26.5932 88.3072C26.6426 88.5036 26.6587 88.6839 26.6426 88.8643C26.5438 89.5362 25.9373 89.9303 25.3482 89.9303C24.528 89.9143 24.0203 89.3399 24.0203 88.6185C24.0203 86.1271 27.8236 85.9961 30.2816 85.57C30.8881 85.1118 31.528 84.8486 32.1999 84.8486C32.2159 84.8486 32.2333 84.8486 32.2493 84.8647C32.3148 84.8807 32.3642 84.9461 32.3642 85.029C32.3642 85.1599 32.2654 85.3242 32.0196 85.3897C31.7404 85.4712 31.3636 85.554 30.9215 85.6355C30.0852 86.3568 29.4627 88.9792 28.8402 91.3557C30.4793 89.1595 34.2331 84.8486 37.1827 84.8486H37.2161C37.2816 84.8486 37.315 84.8981 37.2816 84.9635L37.2655 85.029L37.2642 85.0343ZM26.8884 95.2458C26.8884 95.3273 26.9379 95.3767 26.9873 95.3767C27.1022 95.3767 27.2331 94.8357 27.3974 93.9994C27.2665 94.2612 26.8898 94.9506 26.8898 95.2458H26.8884Z" fill="#F4F1ED"/>
<path d="M32.0483 94.5735C32.0483 93.1642 33.9493 90.8691 35.9651 90.8691C36.8829 90.8691 37.2596 91.3447 37.2596 91.9833C37.2596 92.6552 36.8174 93.5569 36.1281 94.2943C36.4393 94.1955 36.7666 93.9991 37.0124 93.7213L37.5201 93.1308C37.5535 93.0974 37.5695 93.0974 37.6016 93.0974H37.683C37.7645 93.0974 37.7979 93.1629 37.7645 93.2123L37.2235 93.8348C36.8468 94.277 36.3058 94.5388 35.8302 94.5722C35.1422 95.2108 34.2565 95.6703 33.3548 95.6703C32.4531 95.6703 32.043 95.2121 32.043 94.5722L32.0483 94.5735ZM33.9332 95.2949C34.326 95.2949 34.7695 94.9503 35.1622 94.4587C34.7027 94.2129 34.5063 93.6718 34.5063 93.0653C34.5063 92.4268 34.7521 91.7214 35.1449 91.2793C34.1777 91.7054 33.1451 93.41 33.1451 94.4747C33.1451 94.9503 33.3748 95.2949 33.9319 95.2949H33.9332ZM35.8021 91.2298C35.2117 91.2459 34.7855 92.2291 34.7855 93.0827C34.7855 93.5903 34.9325 94.0659 35.3105 94.2463C35.8182 93.5409 36.1949 92.6071 36.1949 91.9512C36.1949 91.5905 36.08 91.3287 35.8021 91.2298Z" fill="#F4F1ED"/>
<path d="M37.6566 93.23C37.6071 93.214 37.6071 93.1646 37.6405 93.1312L38.3445 92.3123C38.9016 91.6737 39.6069 90.9189 40.0825 90.9189C40.3617 90.9189 40.4926 91.1981 40.4926 91.46C40.4926 91.5909 40.4592 91.7218 40.4111 91.8207L38.8214 94.6728C38.772 94.7543 38.74 94.9025 38.74 95.0174C38.74 95.1323 38.756 95.2298 38.8214 95.2298C39.6577 95.2298 41.6081 92.6075 42.4443 91.1981L42.5592 91.0018C42.5753 90.9684 42.6087 90.9523 42.6407 90.9523H43.4115C43.477 90.9523 43.5104 91.0178 43.493 91.0672L41.4772 94.6073C41.4117 94.7382 41.3302 94.9186 41.3302 95.0655C41.3302 95.1644 41.3796 95.2298 41.5106 95.2298C41.6749 95.2298 42.2319 94.6073 42.7235 94.0502L43.5264 93.1325C43.5424 93.0991 43.5598 93.0991 43.5919 93.0991H43.6733C43.7548 93.0991 43.7882 93.1646 43.7548 93.214L42.952 94.1651C42.3295 94.8865 41.6081 95.7228 40.9682 95.7228C40.7384 95.7228 40.3457 95.5758 40.3457 95.1817C40.3457 95.0508 40.3951 94.8865 40.4926 94.7062L41.1151 93.5747C40.2468 94.6567 39.2302 95.6399 38.4768 95.6399C37.9358 95.6399 37.7888 95.3447 37.7888 95.0335C37.7888 94.8691 37.8382 94.6888 37.9037 94.5913L38.0026 94.4109V94.3949L39.3959 91.9035C39.3959 91.9035 39.3959 91.8875 39.4119 91.8875L39.4453 91.822C39.5108 91.7071 39.5442 91.6096 39.5442 91.5268C39.5442 91.4773 39.5442 91.4613 39.5281 91.4613C39.4627 91.4613 39.0365 91.8875 38.6104 92.363L37.8396 93.2474C37.8062 93.2808 37.7581 93.2808 37.7247 93.2634L37.6592 93.23H37.6566Z" fill="#F4F1ED"/>
<path d="M43.6389 93.2294C43.5895 93.2134 43.5735 93.1639 43.6055 93.1305L43.9662 92.7204C44.5233 92.0805 45.5893 90.917 46.0649 90.917C46.3441 90.917 46.475 91.1962 46.475 91.458C46.475 91.5889 46.4416 91.7199 46.3935 91.8187L45.803 92.8674C46.6393 91.8347 47.6065 90.917 48.3439 90.917C48.8849 90.917 49.0492 91.2443 49.0492 91.5555C49.0492 91.7199 49.0158 91.8668 48.9504 91.9657L47.4582 94.604C47.3767 94.7349 47.2939 94.9153 47.2939 95.0462C47.2939 95.1451 47.3433 95.2265 47.4903 95.2265C47.6372 95.2265 48.1943 94.604 48.6872 94.047L49.4901 93.1292C49.5061 93.0958 49.5395 93.0958 49.5715 93.0958H49.653C49.7185 93.0958 49.7679 93.1613 49.7185 93.2107L48.9156 94.1618C48.2931 94.8832 47.5717 95.7195 46.9319 95.7195C46.7021 95.7195 46.3093 95.5725 46.3093 95.1784C46.3093 95.0475 46.3588 94.8832 46.4563 94.7029L48.0299 91.9002C48.0794 91.8013 48.1114 91.6704 48.1114 91.5729C48.1114 91.442 48.078 91.3271 47.9966 91.3271C47.1282 91.3271 45.095 94.1298 44.2922 95.5565C44.2761 95.5899 44.2427 95.6059 44.2107 95.6059H43.4399C43.3744 95.6059 43.325 95.5565 43.3584 95.5071L45.4237 91.8187C45.4731 91.6878 45.5051 91.6063 45.5051 91.458C45.4236 91.458 44.9975 91.9002 44.5874 92.3597L43.8166 93.2441C43.7832 93.2775 43.7351 93.2775 43.6857 93.2601L43.6362 93.2267L43.6389 93.2294Z" fill="#F4F1ED"/>
<path d="M49.9818 90.0997C49.9818 90.0503 50.0312 90.0182 50.0806 90.0182H50.8995L52.1459 87.9195C52.1619 87.8861 52.1953 87.8701 52.2274 87.8701H52.9982C53.0637 87.8701 53.0971 87.9195 53.0797 87.969L51.8667 90.0182H53.1291C53.1785 90.0182 53.2106 90.0516 53.2106 90.0997V90.1812C53.2106 90.2306 53.1772 90.2627 53.1291 90.2627H51.7198L49.3593 94.2944C49.2123 94.5241 49.1135 94.802 49.1135 95.0157C49.1135 95.2295 49.2123 95.3764 49.4408 95.3764C49.9163 95.3764 50.5228 94.623 51.0144 94.0486L51.8173 93.1308C51.8333 93.0974 51.8667 93.0974 51.8827 93.0974H51.9816C52.0471 93.0974 52.0965 93.1629 52.0471 93.2123L51.2442 94.1634C50.6217 94.8848 49.9163 95.7211 49.032 95.7211C48.4095 95.7211 48.1797 95.3938 48.1797 94.9997C48.1797 94.7539 48.2785 94.4747 48.4095 94.2463L50.77 90.2627H50.082C50.0325 90.2627 49.9831 90.2293 49.9831 90.1812V90.0997H49.9818Z" fill="#F4F1ED"/>
<path d="M54.4222 93.5089C53.439 94.5909 52.2421 95.673 51.7999 95.673C51.2923 95.673 51.0625 95.3778 51.0625 94.9022C51.0625 93.6077 52.9969 90.9199 55.0621 90.9199C55.3573 90.9199 55.5698 91.0508 55.6526 91.2806L55.7835 91.0508C55.8169 90.9854 55.8823 90.952 55.9638 90.952H56.7346C56.8001 90.952 56.8161 91.0174 56.7841 91.0669L54.7843 94.623C54.7028 94.7539 54.6039 94.9503 54.6039 95.0825C54.6039 95.164 54.6533 95.2295 54.7682 95.2295C54.9325 95.2295 55.4896 94.607 55.9812 94.0499L56.7841 93.1321C56.8001 93.0987 56.8335 93.0987 56.8495 93.0987H56.9484C57.0138 93.0987 57.0633 93.1642 57.0138 93.2136L56.211 94.1648C55.5885 94.8862 54.8671 95.7224 54.2272 95.7224C53.9974 95.7224 53.6047 95.5755 53.6047 95.1814C53.6047 95.0505 53.6541 94.8862 53.7516 94.7058L54.4236 93.5089H54.4222ZM55.1596 92.165C55.2251 92.018 55.2906 91.8043 55.2906 91.64C55.2906 91.4102 55.1757 91.2138 54.8484 91.2138C53.7997 91.2138 52.0951 93.4434 52.0951 94.8207C52.0951 95.001 52.1446 95.1159 52.2594 95.1159C52.5213 95.1159 54.2753 93.4768 55.161 92.165H55.1596Z" fill="#F4F1ED"/>
<path d="M58.0601 94.6074C57.9786 94.7383 57.8958 94.9186 57.8958 95.0656C57.8958 95.1644 57.9452 95.2299 58.0762 95.2299C58.2405 95.2299 58.7975 94.6074 59.2891 94.0503L60.092 93.1326C60.108 93.0992 60.1414 93.0992 60.1575 93.0992H60.2563C60.3218 93.0992 60.3712 93.1646 60.3218 93.2141L59.5189 94.1652C58.8964 94.8866 58.175 95.7228 57.5351 95.7228C57.3054 95.7228 56.9126 95.5759 56.9126 95.1818C56.9126 95.0509 56.962 94.8866 57.0596 94.7062L58.6653 91.8221C58.7468 91.6912 58.7641 91.6097 58.7641 91.4614C58.6826 91.4614 58.2391 91.9036 57.8464 92.3631L57.0596 93.2475C57.0262 93.2809 56.9781 93.2809 56.9447 93.2635L56.8792 93.2301C56.8298 93.2141 56.8298 93.1646 56.8632 93.1312L57.5685 92.3123C58.1416 91.6738 58.8309 90.919 59.3065 90.919C59.5857 90.919 59.7166 91.1982 59.7166 91.4601C59.7166 91.591 59.7006 91.7219 59.6351 91.8207L58.0615 94.6074H58.0601ZM60.3886 89.2305C60.5849 89.2305 60.6998 89.3293 60.6998 89.4763C60.6998 89.8036 60.1922 90.0828 59.913 90.0828C59.7166 90.0828 59.6017 89.9839 59.6017 89.837C59.6017 89.4923 60.0933 89.2305 60.3886 89.2305Z" fill="#F4F1ED"/>
<path d="M60.2235 93.2294C60.1741 93.2134 60.1581 93.1639 60.1901 93.1305L60.5508 92.7204C61.1079 92.0805 62.1739 90.917 62.6495 90.917C62.9287 90.917 63.0596 91.1962 63.0596 91.458C63.0596 91.5889 63.0262 91.7199 62.9781 91.8187L62.3876 92.8674C63.2239 91.8347 64.1911 90.917 64.9285 90.917C65.4695 90.917 65.6338 91.2443 65.6338 91.5555C65.6338 91.7199 65.6004 91.8668 65.535 91.9657L64.0441 94.604C63.9626 94.7349 63.8798 94.9153 63.8798 95.0462C63.8798 95.1451 63.9292 95.2265 64.0762 95.2265C64.2231 95.2265 64.7802 94.604 65.2731 94.047L66.076 93.1292C66.092 93.0958 66.1254 93.0958 66.1575 93.0958H66.239C66.3044 93.0958 66.3539 93.1613 66.3044 93.2107L65.5016 94.1618C64.8791 94.8832 64.1577 95.7195 63.5178 95.7195C63.288 95.7195 62.8953 95.5725 62.8953 95.1784C62.8953 95.0475 62.9447 94.8832 63.0422 94.7029L64.6159 91.9002C64.6653 91.8013 64.6974 91.6704 64.6974 91.5729C64.6974 91.442 64.664 91.3271 64.5825 91.3271C63.7142 91.3271 61.681 94.1298 60.8781 95.5565C60.8621 95.5899 60.8287 95.6059 60.7966 95.6059H60.0258C59.9604 95.6059 59.9109 95.5565 59.9443 95.5071L62.0096 91.8187C62.059 91.6878 62.0911 91.6063 62.0911 91.458C62.0096 91.458 61.5834 91.9002 61.1733 92.3597L60.4025 93.2441C60.3691 93.2775 60.321 93.2775 60.2716 93.2601L60.2222 93.2267L60.2235 93.2294Z" fill="#F4F1ED"/>
<path d="M76.9735 94.623C75.8594 94.7379 74.7119 94.4761 73.7768 93.9845C72.8751 94.8862 71.7275 95.8039 70.401 95.8373C69.5808 95.8373 69.2695 95.4606 69.2695 95.116C69.2695 94.8207 69.5153 94.5415 69.8266 94.5415C70.2861 94.5415 70.3342 94.7873 70.3836 95.0492C70.417 95.2629 70.4651 95.4914 70.9407 95.4914C71.8745 95.4914 72.8751 94.4267 73.4655 93.8028C72.4823 93.2123 71.8104 92.344 71.8104 91.4423C71.8104 90.3602 72.859 89.7698 74.072 89.7698C74.8254 89.7698 75.6617 89.9996 76.3016 90.4097C78.2025 88.1146 81.1041 84.7549 84.3503 84.7549H84.3836V84.7709H84.4331V84.7869C84.4491 84.7869 84.4665 84.8203 84.4665 84.8364C84.4665 84.8524 84.4504 84.8524 84.4504 84.8858L84.417 84.9513C84.401 84.9847 84.3676 85.0167 84.3182 85.0167C82.3024 85.0167 79.0081 92.3267 78.2039 94.1141C78.7115 93.9017 79.1711 93.573 79.5638 93.1309L79.7107 92.9665C79.7268 92.9331 79.7602 92.9011 79.7922 92.9011C79.8737 92.9011 79.9392 92.9505 79.9392 93.016C79.9392 93.032 79.9232 93.0654 79.9058 93.0814L79.7415 93.2778C79.2659 93.8028 78.6928 94.1635 78.0863 94.3933C77.89 94.8354 77.7096 95.2122 77.5947 95.5074C77.5613 95.5728 77.5132 95.6062 77.4304 95.6062H76.7264C76.6609 95.6062 76.6275 95.5902 76.6275 95.5408C76.7264 95.2456 76.8413 94.9503 76.9722 94.623H76.9735ZM76.1533 90.6074C75.5308 90.2307 74.8094 90.0009 74.072 90.0009C73.0233 90.0009 72.0882 90.4925 72.0882 91.4436C72.0882 92.2625 72.7108 93.0507 73.6285 93.6238C74.219 92.9852 74.8254 92.2305 75.448 91.4597C75.6777 91.1805 75.9062 90.8866 76.1533 90.6074ZM73.9571 93.8041C74.7106 94.1809 75.6123 94.4267 76.498 94.4267C76.6943 94.4267 76.8747 94.4106 77.0711 94.3933C77.1525 94.1969 77.2354 93.9992 77.3169 93.7534L77.3329 93.7373C77.4317 93.4261 77.5132 93.1148 77.5132 92.8022C77.5132 92.0314 77.1205 91.3434 76.4806 90.8358L76.3497 91.0001C75.5468 92.0007 74.744 92.9839 73.9571 93.8028V93.8041ZM76.6289 90.6408C77.3169 91.1818 77.7604 91.9032 77.7924 92.7221C79.0388 89.9354 80.9398 86.4274 82.9556 85.1984C80.5457 85.8864 78.5138 88.2963 76.6289 90.6394V90.6408Z" fill="#F4F1ED"/>
<path d="M84.0691 91.8855C84.1345 91.804 84.1679 91.7052 84.1679 91.6063C84.1679 91.4594 84.1185 91.3271 84.037 91.3271C83.2168 91.3271 81.3986 93.7691 80.4969 95.2452L77.8586 99.9662C77.8425 99.9823 77.8091 99.9996 77.7771 99.9996H77.0063C76.9408 99.9996 76.8914 99.9502 76.9248 99.9008L81.4481 91.82C81.5296 91.6891 81.5469 91.6076 81.5469 91.4594C81.4654 91.4594 81.0393 91.8855 80.6292 92.3611L79.8423 93.2454C79.8089 93.2788 79.7609 93.2788 79.7275 93.2615L79.662 93.2281C79.6126 93.212 79.6126 93.1626 79.646 93.1292L80.3513 92.3103C80.9084 91.6718 81.6137 90.917 82.088 90.917C82.3672 90.917 82.4981 91.1962 82.4981 91.458C82.4981 91.5889 82.482 91.7199 82.4166 91.8187L81.8261 92.8674C82.6784 91.8347 83.6296 90.917 84.383 90.917C84.924 90.917 85.1204 91.2616 85.1204 91.5729C85.1204 91.7372 85.0549 91.9002 84.9735 91.983L82.5475 94.5239C82.3832 94.7042 82.3177 94.8512 82.3177 94.966C82.3177 95.2613 82.6624 95.4082 82.7599 95.4082C83.17 95.4082 84.0544 94.6214 84.5633 94.0483L85.3502 93.1305C85.3662 93.0971 85.3996 93.0971 85.4317 93.0971H85.5131C85.5946 93.0971 85.628 93.1626 85.5946 93.212L84.7744 94.1632C84.1519 94.8846 83.3156 95.7208 82.4299 95.7208C82.0038 95.7208 81.4307 95.3281 81.4307 94.8685C81.4307 94.7216 81.4962 94.5733 81.6271 94.4424L84.0691 91.8855Z" fill="#F4F1ED"/>
<path d="M88.0043 93.5089C87.0211 94.5909 85.8241 95.673 85.3819 95.673C84.8743 95.673 84.6445 95.3778 84.6445 94.9022C84.6445 93.6077 86.5789 90.9199 88.6442 90.9199C88.9394 90.9199 89.1518 91.0508 89.2346 91.2806L89.3655 91.0508C89.3989 90.9854 89.4644 90.952 89.5459 90.952H90.3167C90.3821 90.952 90.3982 91.0174 90.3661 91.0669L88.3663 94.623C88.2848 94.7539 88.1859 94.9503 88.1859 95.0825C88.1859 95.164 88.2354 95.2295 88.3503 95.2295C88.5146 95.2295 89.0716 94.607 89.5632 94.0499L90.3661 93.1321C90.3821 93.0987 90.4155 93.0987 90.4316 93.0987H90.5304C90.5959 93.0987 90.6453 93.1642 90.5959 93.2136L89.793 94.1648C89.1705 94.8862 88.4491 95.7224 87.8092 95.7224C87.5795 95.7224 87.1867 95.5755 87.1867 95.1814C87.1867 95.0505 87.2361 94.8862 87.3337 94.7058L88.0056 93.5089H88.0043ZM88.7417 92.165C88.8071 92.018 88.8726 91.8043 88.8726 91.64C88.8726 91.4102 88.7577 91.2138 88.4304 91.2138C87.3817 91.2138 85.6772 93.4434 85.6772 94.8207C85.6772 95.001 85.7266 95.1159 85.8415 95.1159C86.1033 95.1159 87.8573 93.4768 88.743 92.165H88.7417Z" fill="#F4F1ED"/>
<path d="M93.0039 91.7218C93.0039 91.5415 92.5457 91.5254 92.4308 91.1647C92.2184 91.3945 91.7589 91.9836 91.4316 92.3617L90.6608 93.246C90.6274 93.2794 90.5793 93.2794 90.5298 93.2621L90.4804 93.2287C90.431 93.2126 90.431 93.1632 90.447 93.1298L91.1684 92.3109C91.3327 92.1306 92.1516 91.2623 92.2505 90.951C92.185 89.8195 92.7581 89.4268 93.1361 89.4268C93.3165 89.4268 93.4634 89.5256 93.4634 89.6726C93.4634 89.9023 93.0213 90.5583 92.7087 90.9189C92.6753 90.9844 92.6753 91.0499 92.6753 91.0993C92.6753 91.3611 92.9865 91.4266 93.3472 91.4266C93.6745 91.4266 93.8882 91.5735 93.8882 91.8193C93.8882 91.9502 93.8068 92.1306 93.6424 92.3109C93.0026 93.0163 91.3634 94.3602 91.3634 94.9667C91.3634 95.131 91.3474 95.3594 91.6587 95.3594C91.9859 95.3594 92.5764 95.0321 93.4287 94.0476L94.2316 93.1298C94.2476 93.0964 94.281 93.0964 94.313 93.0964H94.3945C94.46 93.0964 94.5094 93.1619 94.46 93.2113L93.6571 94.1625C92.6739 95.31 91.9192 95.7027 91.4115 95.7027C90.773 95.7027 90.5432 95.2445 90.5432 94.9319C90.5432 93.8833 92.3132 92.5875 92.9037 91.9155C92.9692 91.834 93.0026 91.7686 93.0026 91.7191L93.0039 91.7218Z" fill="#F4F1ED"/>
<path d="M95.2318 90.0997C95.2318 90.0503 95.2812 90.0182 95.3306 90.0182H96.1495L97.3959 87.9195C97.4119 87.8861 97.4453 87.8701 97.4774 87.8701H98.2482C98.3137 87.8701 98.3471 87.9195 98.3297 87.969L97.1167 90.0182H98.3791C98.4285 90.0182 98.4606 90.0516 98.4606 90.0997V90.1812C98.4606 90.2306 98.4272 90.2627 98.3791 90.2627H96.9698L94.6093 94.2944C94.4623 94.5241 94.3635 94.802 94.3635 95.0157C94.3635 95.2295 94.4623 95.3764 94.6908 95.3764C95.1663 95.3764 95.7728 94.623 96.2644 94.0486L97.0673 93.1308C97.0833 93.0974 97.1167 93.0974 97.1327 93.0974H97.2316C97.2971 93.0974 97.3465 93.1629 97.2971 93.2123L96.4942 94.1634C95.8717 94.8848 95.1663 95.7211 94.282 95.7211C93.6595 95.7211 93.4297 95.3938 93.4297 94.9997C93.4297 94.7539 93.5285 94.4747 93.6595 94.2463L96.02 90.2627H95.332C95.2825 90.2627 95.2331 90.2293 95.2331 90.1812V90.0997H95.2318Z" fill="#F4F1ED"/>
<path d="M96.9672 95.6063C96.9018 95.6063 96.8523 95.5569 96.8857 95.5074L98.951 91.8191C99.0165 91.6882 99.0325 91.6067 99.0325 91.4584C98.951 91.4584 98.5249 91.9006 98.1147 92.3601L97.3439 93.2445C97.3105 93.2779 97.2624 93.2779 97.213 93.2605L97.1636 93.2271C97.1142 93.2111 97.0981 93.1616 97.1302 93.1282L97.8516 92.3093C98.4086 91.6708 99.114 90.916 99.5895 90.916C99.8687 90.916 99.9997 91.1952 99.9997 91.457C99.9997 91.588 99.9663 91.7189 99.9182 91.8177L99.5254 92.5217C100.247 91.6374 101.034 90.916 101.69 90.916C102.165 90.916 102.296 91.1458 102.296 91.4236C102.296 91.62 102.215 91.8498 102.132 91.9647L101.82 92.5217C102.558 91.6374 103.345 90.916 103.985 90.916C104.443 90.916 104.591 91.1458 104.591 91.4076C104.591 91.604 104.492 91.8338 104.411 91.9647L102.919 94.603C102.853 94.734 102.772 94.9143 102.772 95.0612C102.772 95.1601 102.821 95.2256 102.952 95.2256C103.099 95.2256 103.673 94.603 104.165 94.046L104.952 93.1282C104.985 93.0948 105.001 93.0948 105.033 93.0948H105.115C105.196 93.0948 105.23 93.1603 105.196 93.2097L104.377 94.1609C103.771 94.8822 103.033 95.7185 102.411 95.7185C102.181 95.7185 101.788 95.5716 101.788 95.1775C101.788 95.0466 101.838 94.8822 101.935 94.7019L103.542 91.8177C103.624 91.6708 103.673 91.5225 103.673 91.3916C103.673 91.3422 103.657 91.3261 103.64 91.3261C102.903 91.3261 101.378 93.4408 100.461 94.949L100.116 95.5555C100.1 95.5889 100.066 95.605 100.034 95.605H99.2636C99.1981 95.605 99.1647 95.5555 99.1821 95.5061L101.214 91.8992C101.295 91.7523 101.378 91.5225 101.394 91.3916C101.394 91.3582 101.378 91.3261 101.361 91.3261C100.525 91.3261 98.6397 94.0967 97.8208 95.5555C97.8048 95.5889 97.7714 95.605 97.7394 95.605H96.9686L96.9672 95.6063Z" fill="#F4F1ED"/>
<path d="M106.132 95.1149C107 95.1149 108.131 94.2466 108.623 93.6722L109.099 93.1311C109.115 93.0977 109.148 93.0977 109.18 93.0977H109.262C109.343 93.0977 109.376 93.1632 109.343 93.2126L108.851 93.7857C108.015 94.7689 106.54 95.6706 105.492 95.6706C104.804 95.6706 104.328 95.3594 104.328 94.638C104.328 93.0977 106.312 90.8682 108.197 90.8682C108.787 90.8682 109.196 91.0979 109.196 91.4747C109.196 91.5735 109.163 91.6871 109.097 91.8019C108.54 92.7357 106.933 93.1632 105.721 93.3422C105.525 93.7523 105.394 94.1611 105.394 94.4403C105.394 94.9319 105.591 95.1123 106.132 95.1123V95.1149ZM108.131 91.8861C108.23 91.7058 108.278 91.5588 108.278 91.4439C108.278 91.2636 108.163 91.1647 107.983 91.1647C107.246 91.1647 106.376 92.1319 105.852 93.0657C106.754 92.9508 107.656 92.721 108.131 91.8861Z" fill="#F4F1ED"/>
<path d="M108.95 93.2294C108.901 93.2134 108.885 93.1639 108.917 93.1305L109.277 92.7204C109.834 92.0805 110.9 90.917 111.376 90.917C111.655 90.917 111.786 91.1962 111.786 91.458C111.786 91.5889 111.753 91.7199 111.705 91.8187L111.114 92.8674C111.95 91.8347 112.918 90.917 113.655 90.917C114.196 90.917 114.36 91.2443 114.36 91.5555C114.36 91.7199 114.327 91.8668 114.262 91.9657L112.771 94.604C112.689 94.7349 112.606 94.9153 112.606 95.0462C112.606 95.1451 112.656 95.2265 112.803 95.2265C112.95 95.2265 113.507 94.604 114 94.047L114.803 93.1292C114.819 93.0958 114.852 93.0958 114.884 93.0958H114.966C115.031 93.0958 115.08 93.1613 115.031 93.2107L114.228 94.1618C113.606 94.8832 112.884 95.7195 112.244 95.7195C112.015 95.7195 111.622 95.5725 111.622 95.1784C111.622 95.0475 111.671 94.8832 111.769 94.7029L113.342 91.9002C113.392 91.8013 113.424 91.6704 113.424 91.5729C113.424 91.442 113.391 91.3271 113.309 91.3271C112.441 91.3271 110.408 94.1298 109.605 95.5565C109.589 95.5899 109.555 95.6059 109.523 95.6059H108.752C108.687 95.6059 108.637 95.5565 108.671 95.5071L110.736 91.8187C110.786 91.6878 110.818 91.6063 110.818 91.458C110.736 91.458 110.31 91.9002 109.9 92.3597L109.129 93.2441C109.096 93.2775 109.048 93.2775 108.998 93.2601L108.949 93.2267L108.95 93.2294Z" fill="#F4F1ED"/>
<path d="M115.294 90.0997C115.294 90.0503 115.344 90.0182 115.393 90.0182H116.212L117.458 87.9195C117.474 87.8861 117.508 87.8701 117.54 87.8701H118.311C118.376 87.8701 118.41 87.9195 118.392 87.969L117.179 90.0182H118.442C118.491 90.0182 118.523 90.0516 118.523 90.0997V90.1812C118.523 90.2306 118.49 90.2627 118.442 90.2627H117.032L114.672 94.2944C114.525 94.5241 114.426 94.802 114.426 95.0157C114.426 95.2295 114.525 95.3764 114.753 95.3764C115.229 95.3764 115.835 94.623 116.327 94.0486L117.13 93.1308C117.146 93.0974 117.179 93.0974 117.195 93.0974H117.294C117.36 93.0974 117.409 93.1629 117.36 93.2123L116.557 94.1634C115.934 94.8848 115.229 95.7211 114.344 95.7211C113.722 95.7211 113.492 95.3938 113.492 94.9997C113.492 94.7539 113.591 94.4747 113.722 94.2463L116.082 90.2627H115.394C115.345 90.2627 115.296 90.2293 115.296 90.1812V90.0997H115.294Z" fill="#F4F1ED"/>
<path d="M118.145 95.2951C118.735 95.1482 118.964 94.4749 118.964 94.0007C118.964 93.656 118.882 93.2967 118.817 92.936C118.735 92.5432 118.686 92.1825 118.686 91.7884C118.522 91.9528 118.341 92.1652 118.178 92.3615L117.391 93.2459C117.358 93.2793 117.31 93.2793 117.277 93.2619L117.211 93.2285C117.162 93.2125 117.162 93.1631 117.195 93.1297L117.9 92.3108C117.966 92.2453 118.031 92.1638 118.081 92.0984C118.408 91.7217 118.769 91.3115 119.113 91.0497C119.26 90.8694 119.441 90.7705 119.621 90.7705C119.67 90.7705 119.833 90.8039 119.833 90.8694V90.9028C119.686 91.182 119.637 91.4598 119.637 91.739C119.637 92.0663 119.703 92.3776 119.768 92.6902C119.833 93.0014 119.899 93.3127 119.899 93.624C119.899 94.0007 119.768 94.3453 119.554 94.6566C119.865 94.4602 120.145 94.2465 120.325 94.0501L121.112 93.1323C121.128 93.0989 121.161 93.0989 121.193 93.0989H121.275C121.356 93.0989 121.39 93.1644 121.356 93.2138L120.537 94.165C120.127 94.6566 119.291 95.1976 118.439 95.4768C117.997 95.6572 117.602 95.7066 117.127 95.7066C116.439 95.6572 116.176 95.3138 116.176 95.0026C116.176 94.7407 116.388 94.4949 116.733 94.4949C117.159 94.4949 117.191 94.6913 117.208 94.9051C117.242 95.3152 117.601 95.3312 117.946 95.3312C117.995 95.3152 118.093 95.2978 118.142 95.2978L118.145 95.2951Z" fill="#F4F1ED"/>
</svg>
