<svg width="444" height="100" viewBox="0 0 444 100" fill="none" xmlns="http://www.w3.org/2000/svg">
<path d="M143.322 40.2213V43.4804H102.936C102.971 42.9334 102.984 42.3864 102.984 41.8496C102.984 41.3128 102.971 40.7479 102.936 40.2188H143.322V40.2213Z" fill="#F4F1ED"/>
<path d="M141.122 5.04492L99.8828 28.8561C99.4197 27.9097 98.8727 26.9658 98.252 26.0423L134.606 5.04492H141.119H141.122Z" fill="#F4F1ED"/>
<path d="M97.2277 5.04492L89.9283 17.7023C89.0302 17.1019 88.0736 16.5549 87.1094 16.0791L93.4851 5.04492H97.2277Z" fill="#F4F1ED"/>
<path d="M75.7324 5.04492V13.0159C75.2439 12.993 74.674 12.9676 74.1015 12.9676C73.5291 12.9676 72.9897 12.9905 72.4707 13.0159V5.04492H75.7298H75.7324Z" fill="#F4F1ED"/>
<path d="M61.1048 16.0791C60.105 16.5727 59.1534 17.1197 58.2731 17.7023L50.9688 5.04492H54.7291L61.1048 16.0791Z" fill="#F4F1ED"/>
<path d="M49.9473 26.0244V26.0295C49.3596 26.9327 48.8101 27.8843 48.3292 28.8485L7.08008 5.04492H13.5983L49.9473 26.0244Z" fill="#F4F1ED"/>
<path d="M45.2198 41.8519C45.2198 42.4167 45.2427 42.9765 45.2681 43.4828H5.04688V40.2236H45.2681C45.2452 40.7121 45.2198 41.2693 45.2198 41.8545V41.8519Z" fill="#F4F1ED"/>
<path d="M100.007 41.8516C100.007 42.3935 99.9896 42.9354 99.9539 43.4824C99.5265 50.3696 96.3971 56.5317 91.6217 60.9153L74.1888 43.4875L56.672 61.0044C51.8431 56.5978 48.6781 50.4052 48.2507 43.4824C48.2202 42.9354 48.1973 42.3935 48.1973 41.8516C48.1973 41.3097 48.2202 40.7627 48.2507 40.2208C48.472 36.6945 49.4058 33.3438 50.9094 30.3416C51.3902 29.3672 51.9322 28.4207 52.5275 27.515H52.5402C54.4433 24.6477 56.9061 22.1849 59.7734 20.2818C60.6715 19.6763 61.6179 19.1344 62.6 18.6586C65.6047 17.1474 68.9529 16.2136 72.4791 15.9948C73.021 15.9643 73.5604 15.9414 74.11 15.9414C74.6595 15.9414 75.1938 15.9643 75.7332 15.9948C79.267 16.2136 82.6203 17.1499 85.6301 18.6586C86.6045 19.1344 87.551 19.6763 88.4491 20.2767V20.2818C91.3037 22.1976 93.7715 24.6604 95.6822 27.5277C96.2877 28.4309 96.8373 29.3646 97.3131 30.3416C98.8243 33.3463 99.7453 36.6945 99.959 40.2208C99.9947 40.7627 100.012 41.3097 100.012 41.8516H100.007Z" fill="#F4F1ED"/>
<path d="M148.357 96.7402H0V99.9994H148.357V96.7402Z" fill="#F4F1ED"/>
<path d="M143.32 68.4643V94.9571H119.473L126.047 85.8386H110.527L122.941 79.6944L118.671 73.8452L123.732 62.9077L122.602 52.3493L122.549 52.2958L101.725 73.1252L100.671 74.1735L98.3688 76.4861L79.9004 94.9571H71.0797L77.6513 85.8386H62.1342L74.5474 79.6944L70.2757 73.8452L75.3386 62.9077L74.4584 54.6747L74.2014 52.3136L74.1836 52.2958L64.2917 62.2004L61.8722 64.6098L52.3085 74.1862L50.006 76.4861L31.5377 94.9571H22.6864L29.2581 85.8386H13.741L26.1542 79.6944L21.8824 73.8452L26.9454 62.9077L25.8158 52.2958L5.04492 73.0718V68.4566L25.8158 47.6934L48.94 70.8304L49.9933 71.8837L74.1836 47.6934L87.0445 60.5467L89.375 62.8848L98.3688 71.8709L99.4221 70.8253L122.549 47.6934L143.32 68.4643Z" fill="#F4F1ED"/>
<path d="M0 0V100H148.357V0H0ZM3.26166 96.7409V3.25913H145.106V96.7409H3.26166Z" fill="#F4F1ED"/>
<path d="M185.693 45.3425C185.693 45.6631 185.418 45.8462 184.963 45.8462C182.632 45.8462 181.261 45.5257 178.93 45.5257C176.6 45.5257 175.183 45.8462 172.806 45.8462C172.394 45.8462 172.076 45.663 172.076 45.2967C172.076 45.0219 172.122 44.7929 172.305 44.7471C173.539 44.3808 176.462 45.3399 176.462 38.8064V20.8494C176.462 14.3159 173.539 15.3209 172.305 14.9545C172.168 14.9087 172.122 14.6797 172.076 14.4049C172.076 14.0386 172.397 13.8554 172.806 13.8554C175.412 13.8554 178.06 13.9012 180.62 13.9012C181.212 13.8554 181.899 13.8554 182.675 13.8554C187.153 13.8554 189.667 13.8554 194.19 13.2168C194.511 13.2168 194.783 13.4 194.875 13.7663L196.292 19.5697C196.338 19.7987 196.246 19.936 195.971 19.936C195.742 19.936 195.513 19.7987 195.422 19.6155C193.503 16.0968 190.99 15.7305 184.957 15.7305H181.347C181.301 15.9137 181.301 16.1426 181.301 16.4149V26.8334H185.825C189.845 26.8334 190.623 23.9559 190.807 23.1316C190.944 22.4014 191.081 22.264 191.399 22.2182C191.72 22.2182 191.949 22.5388 191.903 22.9942C191.72 25.4163 191.628 26.696 191.628 27.9757C191.628 29.2555 191.72 30.581 191.903 33.0031V33.1405C191.903 33.5068 191.72 33.7791 191.445 33.7791C191.125 33.7333 190.941 33.5043 190.761 32.8657C190.578 32.0897 189.802 29.1181 185.825 29.1181H181.301V38.8497C181.301 45.3832 184.225 44.3782 185.459 44.7446C185.596 44.7904 185.688 45.0194 185.688 45.3374L185.693 45.3425Z" fill="#F4F1ED"/>
<path d="M206.896 22.541C212.516 22.541 218.182 26.4718 218.182 34.3767C218.182 42.2815 212.516 46.2123 206.896 46.2123C201.276 46.2123 195.564 42.2357 195.564 34.3767C195.564 26.5176 201.23 22.541 206.896 22.541ZM206.896 44.4746C209.957 44.4746 213.02 40.956 213.02 33.9187C213.02 27.3394 209.96 24.0497 206.896 24.0497C203.833 24.0497 200.727 27.3394 200.727 33.9187C200.727 40.956 203.787 44.4746 206.896 44.4746Z" fill="#F4F1ED"/>
<path d="M226.908 29.8075L226.954 38.5342C226.954 40.7273 227.546 43.2867 230.793 43.2867C234.039 43.2867 237.054 41.5948 237.008 36.341V28.6194C237.008 25.0092 235.683 25.6961 234.495 25.3755C234.403 25.3297 234.128 25.1465 234.128 24.8718C234.128 24.6428 234.311 24.4138 234.767 24.2332C235.818 23.821 239.886 22.2232 240.891 22.2232C241.349 22.2232 241.621 22.5438 241.621 23.1366L241.575 38.8547C241.575 44.2001 242.992 43.5157 244.18 43.5157C244.593 43.5157 245.048 43.6073 245.048 44.1085C245.048 44.4291 244.819 44.7929 244.409 44.8387C242.033 45.1135 240.344 45.8894 239.247 45.8894C237.42 45.8894 237.054 45.3857 237.008 42.4624C234.907 44.9303 231.526 46.21 228.419 46.21C222.982 46.21 222.341 42.0528 222.341 37.7556V28.6168C222.341 25.0066 221.015 25.6935 219.782 25.373C219.69 25.3272 219.461 25.144 219.461 24.8692C219.461 24.686 219.598 24.4113 220.1 24.2306C221.196 23.7727 225.173 22.2207 226.223 22.2207C226.681 22.2207 226.954 22.5413 226.908 23.1341V29.805V29.8075Z" fill="#F4F1ED"/>
<path d="M254.324 22.2207C254.782 22.2207 255.009 22.5413 255.009 23.1341V26.9275C257.019 24.2306 260.354 22.5871 263.051 22.5871C264.651 22.5871 266.432 23.1799 266.432 25.055C266.432 26.2889 265.565 27.5228 264.056 27.5228C262.547 27.5228 261.222 26.4263 259.487 26.4263C256.79 26.4263 255.055 28.5278 255.009 32.0464V38.8547C255.009 45.3882 257.431 44.3375 258.711 44.7496C258.802 44.7954 258.894 45.0244 258.894 45.3424C258.894 45.6605 258.619 45.8462 258.209 45.8462C255.879 45.8462 254.966 45.5256 252.635 45.5256C250.305 45.5256 249.574 45.8462 247.198 45.8462C246.832 45.8462 246.514 45.663 246.514 45.2966C246.559 45.0219 246.605 44.7929 246.743 44.7471C247.977 44.3349 250.444 45.3399 250.444 38.8064V28.6168C250.444 25.0066 249.073 25.6935 247.885 25.373C247.793 25.3272 247.564 25.144 247.564 24.8692C247.564 24.6402 247.702 24.4113 248.203 24.2306C249.3 23.7727 253.276 22.2207 254.327 22.2207H254.324Z" fill="#F4F1ED"/>
<path d="M298.922 12.1686C299.242 12.1686 299.56 12.3975 299.606 12.7181L301.252 20.2108C301.344 20.5314 301.069 20.7603 300.749 20.7603C300.565 20.7603 300.291 20.623 300.156 20.3482C297.917 16.2825 294.169 14.6822 290.88 14.6822C287.59 14.6822 284.664 16.4174 284.664 18.9311C284.664 26.6985 302.392 28.7084 302.392 37.1628C302.392 43.4216 295.584 45.8437 289.188 45.8437C280.916 45.8437 282.654 46.5281 281.649 46.5281C281.283 46.5281 280.965 46.2991 280.919 45.9785L279.914 36.2469V36.2011C279.914 35.9264 280.189 35.6974 280.464 35.6974C280.693 35.6974 280.922 35.789 281.056 36.1095C284.163 44.106 287.226 44.335 291.292 44.335C294.719 44.335 298.1 42.6431 298.1 39.9487C298.1 32.6825 280.372 29.9424 280.372 21.5796C280.372 15.6847 285.992 13.171 291.2 13.171C298.693 13.171 297.871 12.166 298.922 12.166V12.1686Z" fill="#F4F1ED"/>
<path d="M324.509 41.1856C324.922 41.1856 325.331 41.7784 325.059 42.1906C323.505 44.9333 320.49 46.2562 316.879 46.2562C309.433 46.2562 305.41 40.2239 305.41 34.2832C305.41 28.3425 309.295 22.585 317.426 22.585C322.454 22.585 326.565 26.47 326.565 31.0852V33.1409H310.114C310.389 38.1682 313.404 43.5594 318.887 43.5594C321.08 43.5594 322.998 43.0556 324.049 41.4579C324.186 41.2747 324.37 41.1831 324.507 41.1831L324.509 41.1856ZM321.584 31.0852C321.4 26.8821 319.436 24.5516 315.826 24.5516C312.216 24.5516 310.481 27.5207 310.114 31.0852H321.584Z" fill="#F4F1ED"/>
<path d="M346.032 46.3478C343.884 46.3478 342.193 45.2971 342.193 42.9208C340.546 45.2513 338.081 46.2562 335.659 46.2562C331.044 46.2562 328.484 43.3329 328.484 40.1323C328.484 36.4305 331.957 32.4107 339.633 32.4107H342.147V29.8054C342.101 25.3734 340.546 24.0936 337.761 24.0936C334.517 24.0936 335.613 28.3883 332.779 28.3883C331.27 28.3883 330.265 27.5207 330.265 26.4241C330.265 24.689 332.871 22.4043 340.043 22.4043C343.973 22.4043 346.759 24.3226 346.759 29.897L346.805 42.0965C346.805 43.0098 347.217 44.1064 348.268 44.1064C348.589 44.1064 348.952 44.0148 349.365 43.8316C349.868 43.5568 350.37 44.0606 350.37 44.5618C350.37 45.8873 346.943 46.3427 346.029 46.3427L346.032 46.3478ZM342.147 36.2957V34.4231H338.081C334.379 34.4231 332.919 36.3415 332.919 38.443C332.919 40.9109 334.929 43.5619 337.626 43.5619C339.91 43.5619 342.149 41.5978 342.149 36.2957H342.147Z" fill="#F4F1ED"/>
<path d="M360.238 24.3679C358.091 24.3679 356.445 25.2813 356.445 26.79C356.445 31.6799 370.746 34.2369 370.746 39.6306C370.746 44.4289 365.538 45.8461 360.968 45.8461C355.302 45.8461 355.806 46.0751 354.753 46.0751C354.249 46.0751 353.839 45.6171 353.794 45.2991L352.697 38.3534V38.3076C352.697 37.987 352.972 37.758 353.29 37.758C353.473 37.758 353.702 37.8954 353.839 38.1702C356.033 42.877 359.139 44.4315 361.653 44.4315C364.166 44.4315 365.947 42.9686 365.947 41.5972C365.947 37.0279 352.605 35.0179 352.605 28.894C352.605 24.8284 356.582 22.7701 360.739 22.7701C364.258 22.7701 364.942 21.9941 366.405 21.9941C366.909 21.9941 367.319 22.2231 367.456 22.5437L369.056 27.6168V27.7084C369.056 27.9832 368.736 28.1664 368.326 28.1664C368.005 28.1664 367.642 28.0748 367.413 27.8C365.403 25.4237 362.523 24.373 360.238 24.373V24.3679Z" fill="#F4F1ED"/>
<path d="M385.051 22.541C390.671 22.541 396.337 26.4718 396.337 34.3767C396.337 42.2815 390.671 46.2123 385.051 46.2123C379.43 46.2123 373.719 42.2357 373.719 34.3767C373.719 26.5176 379.385 22.541 385.051 22.541ZM385.051 44.4746C388.111 44.4746 391.175 40.956 391.175 33.9187C391.175 27.3394 388.114 24.0497 385.051 24.0497C381.987 24.0497 378.881 27.3394 378.881 33.9187C378.881 40.956 381.942 44.4746 385.051 44.4746Z" fill="#F4F1ED"/>
<path d="M404.152 22.2207C404.61 22.2207 404.836 22.5413 404.836 23.1341V26.149C406.938 23.6811 410.319 22.4013 413.426 22.4013C418.862 22.4013 419.504 26.5586 419.504 30.9015V38.8522C419.504 45.3857 421.972 44.3349 423.205 44.7471C423.343 44.7929 423.389 45.0219 423.434 45.2966C423.434 45.663 423.114 45.8462 422.75 45.8462C420.374 45.8462 419.506 45.5256 417.13 45.5256C414.754 45.5256 414.115 45.8462 411.739 45.8462C411.281 45.8462 411.009 45.6172 411.009 45.2534C411.054 45.0244 411.1 44.7954 411.238 44.7496C412.471 44.3375 414.985 45.3424 414.939 38.8089L414.894 30.1281C414.894 27.935 414.255 25.3755 411.009 25.3755C407.762 25.3755 404.885 26.9758 404.839 32.0464V38.8547C404.839 45.3882 407.261 44.3375 408.541 44.7496C408.632 44.7954 408.724 45.0244 408.724 45.3424C408.724 45.6605 408.449 45.8462 408.039 45.8462C405.709 45.8462 404.796 45.5256 402.465 45.5256C400.135 45.5256 399.404 45.8462 397.028 45.8462C396.662 45.8462 396.344 45.663 396.344 45.2966C396.39 45.0219 396.435 44.7929 396.573 44.7471C397.807 44.3349 400.275 45.3399 400.275 38.8064V28.6168C400.275 25.0066 398.903 25.6935 397.715 25.373C397.623 25.3272 397.395 25.144 397.395 24.8692C397.395 24.6402 397.532 24.4113 398.033 24.2306C399.13 23.7727 403.106 22.2207 404.157 22.2207H404.152Z" fill="#F4F1ED"/>
<path d="M432.711 24.3679C430.563 24.3679 428.917 25.2813 428.917 26.79C428.917 31.6799 443.218 34.2369 443.218 39.6306C443.218 44.4289 438.01 45.8461 433.441 45.8461C427.775 45.8461 428.279 46.0751 427.225 46.0751C426.722 46.0751 426.312 45.6171 426.266 45.2991L425.17 38.3534V38.3076C425.17 37.987 425.444 37.758 425.763 37.758C425.946 37.758 426.175 37.8954 426.312 38.1702C428.505 42.877 431.612 44.4315 434.125 44.4315C436.639 44.4315 438.42 42.9686 438.42 41.5972C438.42 37.0279 425.078 35.0179 425.078 28.894C425.078 24.8284 429.055 22.7701 433.212 22.7701C436.731 22.7701 437.415 21.9941 438.878 21.9941C439.382 21.9941 439.791 22.2231 439.929 22.5437L441.529 27.6168V27.7084C441.529 27.9832 441.208 28.1664 440.799 28.1664C440.478 28.1664 440.114 28.0748 439.885 27.8C437.875 25.4237 434.995 24.373 432.711 24.373V24.3679Z" fill="#F4F1ED"/>
<path d="M203.044 59.3302C203.014 59.3938 202.95 59.4243 202.889 59.4549H202.609C199.332 59.7678 191.058 71.8172 190.341 77.4678C190.247 78.2158 190.372 78.6534 190.809 78.6534C191.089 78.6534 192.588 77.1854 193.682 75.8752L194.648 74.7506C194.679 74.687 194.742 74.6565 194.804 74.6565H194.959C195.114 74.6565 195.178 74.8117 195.083 74.9364L194.084 76.122C192.71 77.8088 190.837 79.7424 189.618 79.7424C188.837 79.7424 188.369 79.0249 188.527 77.7121C189.059 73.6236 193.491 64.8511 198.36 60.9483C194.147 63.4137 189.652 68.5021 186.685 72.6542C185.655 76.3993 184.655 79.5541 183.344 79.5541C183.095 79.5541 182.782 79.3353 182.782 78.8366C182.782 77.9309 184.062 75.7454 184.53 74.9974C185.372 70.8453 186.746 64.5407 189.244 61.4495C184.187 66.5685 181.128 79.9001 174.229 79.9001C172.669 79.9001 172.076 79.1826 172.076 78.5262C172.076 77.964 172.544 77.4322 173.137 77.4322C174.01 77.4322 174.104 77.9004 174.198 78.399C174.262 78.8061 174.353 79.2412 175.259 79.2412C179.256 79.2412 183.344 65.8485 189.12 60.8542C184.779 61.6963 179.131 63.0397 179.131 66.4413C179.131 67.3775 179.694 68.0645 180.63 68.0645C181.566 68.0645 182.284 67.3775 182.284 66.4718C182.284 66.253 182.253 66.0037 182.189 65.6907C182.189 65.6271 182.253 65.5355 182.314 65.5024L182.533 65.4388C182.627 65.4083 182.688 65.4694 182.721 65.5635C182.815 65.9375 182.846 66.281 182.815 66.6244C182.627 67.9042 181.472 68.6547 180.35 68.6547C178.788 68.6242 177.821 67.5302 177.821 66.1563C177.821 61.4114 185.064 61.162 189.746 60.3504C190.901 59.4778 192.119 58.9766 193.399 58.9766C193.43 58.9766 193.463 58.9766 193.493 59.0071C193.618 59.0376 193.712 59.1623 193.712 59.32C193.712 59.5694 193.524 59.8823 193.056 60.007C192.524 60.1622 191.806 60.3199 190.964 60.4751C189.372 61.849 188.186 66.8432 187 71.3694C190.122 67.1867 197.271 58.9766 202.889 58.9766H202.953C203.077 58.9766 203.141 59.0707 203.077 59.1954L203.047 59.32L203.044 59.3302ZM183.283 78.7781C183.283 78.9333 183.378 79.0274 183.472 79.0274C183.69 79.0274 183.94 77.997 184.253 76.4044C184.003 76.903 183.286 78.2158 183.286 78.7781H183.283Z" fill="#F4F1ED"/>
<path d="M193.118 77.4984C193.118 74.8143 196.738 70.4434 200.577 70.4434C202.325 70.4434 203.043 71.3491 203.043 72.5652C203.043 73.845 202.2 75.5623 200.888 76.9667C201.48 76.7784 202.104 76.4044 202.572 75.8752L203.539 74.7507C203.602 74.6871 203.633 74.6871 203.694 74.6871H203.849C204.004 74.6871 204.068 74.8118 204.004 74.9059L202.974 76.0915C202.256 76.9336 201.226 77.4323 200.32 77.4959C199.01 78.712 197.323 79.5872 195.606 79.5872C193.888 79.5872 193.107 78.7146 193.107 77.4959L193.118 77.4984ZM196.707 78.8723C197.455 78.8723 198.3 78.2159 199.048 77.2796C198.173 76.8115 197.799 75.7811 197.799 74.626C197.799 73.4099 198.267 72.0666 199.015 71.2244C197.173 72.036 195.206 75.2824 195.206 77.3102C195.206 78.2159 195.644 78.8723 196.705 78.8723H196.707ZM200.264 71.1303C199.14 71.1608 198.328 73.0334 198.328 74.6591C198.328 75.6259 198.608 76.5316 199.328 76.8751C200.295 75.5318 201.012 73.7534 201.012 72.5042C201.012 71.8172 200.793 71.3186 200.264 71.1303Z" fill="#F4F1ED"/>
<path d="M203.79 74.9386C203.696 74.9081 203.696 74.8139 203.759 74.7503L205.1 73.1907C206.161 71.9746 207.504 70.5371 208.41 70.5371C208.942 70.5371 209.191 71.0688 209.191 71.5675C209.191 71.8168 209.128 72.0662 209.036 72.2544L206.008 77.6863C205.914 77.8415 205.853 78.1239 205.853 78.3427C205.853 78.5615 205.884 78.7473 206.008 78.7473C207.601 78.7473 211.316 73.753 212.908 71.0688L213.127 70.6948C213.158 70.6312 213.221 70.6007 213.282 70.6007H214.75C214.875 70.6007 214.939 70.7254 214.905 70.8195L211.066 77.5617C210.942 77.811 210.786 78.1545 210.786 78.4343C210.786 78.6226 210.88 78.7473 211.13 78.7473C211.443 78.7473 212.504 77.5617 213.44 76.5007L214.969 74.7529C215 74.6893 215.033 74.6893 215.094 74.6893H215.249C215.404 74.6893 215.468 74.8139 215.404 74.9081L213.875 76.7195C212.689 78.0934 211.316 79.6861 210.097 79.6861C209.659 79.6861 208.911 79.4062 208.911 78.6557C208.911 78.4063 209.005 78.0934 209.191 77.7499L210.377 75.595C208.723 77.6558 206.787 79.5283 205.352 79.5283C204.322 79.5283 204.042 78.9661 204.042 78.3733C204.042 78.0603 204.136 77.7169 204.26 77.5311L204.449 77.1877V77.1571L207.102 72.4122C207.102 72.4122 207.102 72.3817 207.133 72.3817L207.197 72.257C207.321 72.0382 207.385 71.8525 207.385 71.6947C207.385 71.6006 207.385 71.5701 207.354 71.5701C207.23 71.5701 206.418 72.3817 205.606 73.2874L204.138 74.9717C204.075 75.0353 203.983 75.0353 203.92 75.0022L203.795 74.9386H203.79Z" fill="#F4F1ED"/>
<path d="M215.184 74.9392C215.089 74.9086 215.059 74.8145 215.12 74.7509L215.807 73.9698C216.868 72.7512 218.898 70.5352 219.804 70.5352C220.336 70.5352 220.585 71.0669 220.585 71.5656C220.585 71.8149 220.521 72.0642 220.43 72.2525L219.305 74.2497C220.898 72.283 222.74 70.5352 224.144 70.5352C225.175 70.5352 225.488 71.1585 225.488 71.7513C225.488 72.0642 225.424 72.3441 225.299 72.5324L222.457 77.5572C222.302 77.8065 222.145 78.15 222.145 78.3993C222.145 78.5876 222.239 78.7428 222.519 78.7428C222.798 78.7428 223.859 77.5572 224.798 76.4962L226.327 74.7484C226.358 74.6848 226.421 74.6848 226.482 74.6848H226.638C226.762 74.6848 226.856 74.8094 226.762 74.9036L225.233 76.715C224.048 78.0889 222.674 79.6816 221.455 79.6816C221.017 79.6816 220.269 79.4017 220.269 78.6512C220.269 78.4018 220.364 78.0889 220.549 77.7454L223.546 72.4077C223.641 72.2194 223.702 71.9701 223.702 71.7844C223.702 71.535 223.638 71.3162 223.483 71.3162C221.829 71.3162 217.957 76.654 216.428 79.3712C216.397 79.4348 216.334 79.4653 216.273 79.4653H214.805C214.68 79.4653 214.586 79.3712 214.649 79.2771L218.583 72.2525C218.677 72.0032 218.738 71.848 218.738 71.5656C218.583 71.5656 217.771 72.4077 216.99 73.2829L215.522 74.9672C215.458 75.0308 215.367 75.0308 215.273 74.9977L215.179 74.9341L215.184 74.9392Z" fill="#F4F1ED"/>
<path d="M227.262 68.9748C227.262 68.8807 227.356 68.8196 227.45 68.8196H229.01L231.384 64.8227C231.414 64.759 231.478 64.7285 231.539 64.7285H233.007C233.132 64.7285 233.195 64.8227 233.162 64.9168L230.852 68.8196H233.256C233.35 68.8196 233.412 68.8832 233.412 68.9748V69.13C233.412 69.2241 233.348 69.2852 233.256 69.2852H230.572L226.077 76.9636C225.797 77.4012 225.608 77.9304 225.608 78.3375C225.608 78.7445 225.797 79.0244 226.232 79.0244C227.138 79.0244 228.293 77.5895 229.229 76.4955L230.758 74.7476C230.788 74.684 230.852 74.684 230.883 74.684H231.071C231.196 74.684 231.29 74.8087 231.196 74.9028L229.666 76.7143C228.481 78.0881 227.138 79.6808 225.453 79.6808C224.268 79.6808 223.83 79.0575 223.83 78.3069C223.83 77.8388 224.018 77.3071 224.268 76.872L228.763 69.2852H227.453C227.359 69.2852 227.265 69.2216 227.265 69.13V68.9748H227.262Z" fill="#F4F1ED"/>
<path d="M235.723 75.4678C233.85 77.5286 231.571 79.5894 230.729 79.5894C229.762 79.5894 229.324 79.0271 229.324 78.1214C229.324 75.6561 233.008 70.5371 236.942 70.5371C237.504 70.5371 237.908 70.7864 238.066 71.224L238.315 70.7864C238.379 70.6618 238.504 70.5982 238.659 70.5982H240.127C240.252 70.5982 240.282 70.7228 240.221 70.817L236.412 77.5896C236.257 77.839 236.069 78.213 236.069 78.4649C236.069 78.6201 236.163 78.7447 236.382 78.7447C236.695 78.7447 237.756 77.5591 238.692 76.4982L240.221 74.7503C240.252 74.6867 240.315 74.6867 240.346 74.6867H240.534C240.659 74.6867 240.753 74.8114 240.659 74.9055L239.13 76.717C237.944 78.0909 236.57 79.6835 235.351 79.6835C234.914 79.6835 234.166 79.4037 234.166 78.6531C234.166 78.4038 234.26 78.0909 234.446 77.7474L235.725 75.4678H235.723ZM237.127 72.9083C237.252 72.6284 237.377 72.2214 237.377 71.9084C237.377 71.4708 237.158 71.0968 236.534 71.0968C234.537 71.0968 231.291 75.3431 231.291 77.9662C231.291 78.3097 231.385 78.5285 231.604 78.5285C232.102 78.5285 235.443 75.4067 237.13 72.9083H237.127Z" fill="#F4F1ED"/>
<path d="M242.652 77.5592C242.497 77.8085 242.339 78.152 242.339 78.4318C242.339 78.6201 242.433 78.7448 242.683 78.7448C242.996 78.7448 244.057 77.5592 244.993 76.4982L246.522 74.7504C246.552 74.6868 246.616 74.6868 246.647 74.6868H246.835C246.96 74.6868 247.054 74.8114 246.96 74.9056L245.43 76.717C244.245 78.0909 242.871 79.6836 241.652 79.6836C241.215 79.6836 240.467 79.4037 240.467 78.6532C240.467 78.4039 240.561 78.0909 240.747 77.7474L243.805 72.2545C243.96 72.0052 243.993 71.85 243.993 71.5676C243.838 71.5676 242.993 72.4097 242.245 73.2849L240.747 74.9692C240.683 75.0328 240.591 75.0328 240.528 74.9997L240.403 74.9361C240.309 74.9056 240.309 74.8114 240.373 74.7478L241.716 73.1882C242.807 71.9721 244.12 70.5346 245.026 70.5346C245.558 70.5346 245.807 71.0664 245.807 71.565C245.807 71.8144 245.776 72.0637 245.652 72.252L242.655 77.5592H242.652ZM247.084 67.3213C247.458 67.3213 247.677 67.5096 247.677 67.7894C247.677 68.4128 246.71 68.9445 246.178 68.9445C245.804 68.9445 245.586 68.7562 245.586 68.4764C245.586 67.82 246.522 67.3213 247.084 67.3213Z" fill="#F4F1ED"/>
<path d="M246.771 74.9392C246.677 74.9086 246.646 74.8145 246.707 74.7509L247.394 73.9698C248.455 72.7512 250.485 70.5352 251.391 70.5352C251.923 70.5352 252.172 71.0669 252.172 71.5656C252.172 71.8149 252.109 72.0642 252.017 72.2525L250.893 74.2497C252.485 72.283 254.327 70.5352 255.732 70.5352C256.762 70.5352 257.075 71.1585 257.075 71.7513C257.075 72.0642 257.011 72.3441 256.887 72.5324L254.047 77.5572C253.892 77.8065 253.734 78.15 253.734 78.3993C253.734 78.5876 253.829 78.7428 254.108 78.7428C254.388 78.7428 255.449 77.5572 256.388 76.4962L257.917 74.7484C257.948 74.6848 258.011 74.6848 258.072 74.6848H258.227C258.352 74.6848 258.446 74.8094 258.352 74.9036L256.823 76.715C255.637 78.0889 254.264 79.6816 253.045 79.6816C252.607 79.6816 251.859 79.4017 251.859 78.6512C251.859 78.4018 251.953 78.0889 252.139 77.7454L255.136 72.4077C255.23 72.2194 255.291 71.9701 255.291 71.7844C255.291 71.535 255.228 71.3162 255.073 71.3162C253.419 71.3162 249.547 76.654 248.018 79.3712C247.987 79.4348 247.923 79.4653 247.862 79.4653H246.394C246.27 79.4653 246.176 79.3712 246.239 79.2771L250.173 72.2525C250.267 72.0032 250.328 71.848 250.328 71.5656C250.173 71.5656 249.361 72.4077 248.58 73.2829L247.112 74.9672C247.048 75.0308 246.957 75.0308 246.863 74.9977L246.768 74.9341L246.771 74.9392Z" fill="#F4F1ED"/>
<path d="M278.672 77.5899C276.551 77.8087 274.365 77.3101 272.584 76.3738C270.867 78.0912 268.681 79.839 266.155 79.9026C264.593 79.9026 264 79.1852 264 78.5288C264 77.9665 264.468 77.4347 265.061 77.4347C265.936 77.4347 266.028 77.9029 266.122 78.4015C266.185 78.8086 266.277 79.2437 267.183 79.2437C268.961 79.2437 270.867 77.2159 271.991 76.0278C270.119 74.9033 268.839 73.2495 268.839 71.5322C268.839 69.4714 270.836 68.3468 273.146 68.3468C274.581 68.3468 276.174 68.7844 277.393 69.5655C281.013 65.1946 286.539 58.7959 292.721 58.7959H292.785V58.8264H292.879V58.857C292.91 58.857 292.943 58.9206 292.943 58.9511C292.943 58.9816 292.912 58.9816 292.912 59.0452L292.849 59.1699C292.818 59.2335 292.755 59.2946 292.66 59.2946C288.821 59.2946 282.547 73.2165 281.016 76.6206C281.982 76.2161 282.858 75.5902 283.606 74.7481L283.885 74.4351C283.916 74.3715 283.98 74.3105 284.041 74.3105C284.196 74.3105 284.321 74.4046 284.321 74.5293C284.321 74.5598 284.29 74.6234 284.257 74.6539L283.944 75.0279C283.038 76.0278 281.947 76.7147 280.792 77.1523C280.418 77.9945 280.074 78.7119 279.855 79.2742C279.792 79.3989 279.7 79.4625 279.543 79.4625H278.202C278.077 79.4625 278.013 79.4319 278.013 79.3378C278.202 78.7755 278.421 78.2133 278.67 77.5899H278.672ZM277.113 69.9421C275.927 69.2246 274.553 68.787 273.149 68.787C271.152 68.787 269.371 69.7233 269.371 71.5347C269.371 73.0943 270.556 74.5954 272.304 75.6869C273.429 74.4707 274.584 73.0333 275.769 71.5653C276.207 71.0335 276.642 70.4738 277.113 69.9421ZM272.93 76.0303C274.365 76.7478 276.082 77.2159 277.769 77.2159C278.143 77.2159 278.487 77.1854 278.861 77.1523C279.016 76.7783 279.174 76.4018 279.329 75.9337L279.359 75.9031C279.548 75.3103 279.703 74.7175 279.703 74.1222C279.703 72.6542 278.955 71.3439 277.736 70.3771L277.487 70.6901C275.958 72.5957 274.429 74.4682 272.93 76.0278V76.0303ZM278.016 70.0057C279.326 71.0361 280.171 72.4099 280.232 73.9695C282.606 68.6623 286.226 61.9812 290.065 59.6406C285.476 60.9508 281.606 65.5406 278.016 70.0031V70.0057Z" fill="#F4F1ED"/>
<path d="M292.189 72.3768C292.314 72.2216 292.378 72.0333 292.378 71.845C292.378 71.5652 292.283 71.3133 292.128 71.3133C290.566 71.3133 287.103 75.9641 285.386 78.7755L280.361 87.7667C280.331 87.7972 280.267 87.8303 280.206 87.8303H278.738C278.613 87.8303 278.519 87.7361 278.583 87.642L287.198 72.2521C287.353 72.0028 287.386 71.8476 287.386 71.5652C287.231 71.5652 286.419 72.3768 285.638 73.2825L284.139 74.9668C284.076 75.0304 283.984 75.0304 283.921 74.9973L283.796 74.9337C283.702 74.9032 283.702 74.809 283.765 74.7454L285.109 73.1858C286.17 71.9697 287.513 70.5322 288.416 70.5322C288.948 70.5322 289.197 71.064 289.197 71.5626C289.197 71.812 289.167 72.0613 289.042 72.2496L287.918 74.2468C289.541 72.2801 291.352 70.5322 292.787 70.5322C293.818 70.5322 294.192 71.1886 294.192 71.7814C294.192 72.0944 294.067 72.4048 293.912 72.5625L289.291 77.4016C288.979 77.745 288.854 78.0249 288.854 78.2437C288.854 78.806 289.51 79.0858 289.696 79.0858C290.477 79.0858 292.161 77.5873 293.131 76.4958L294.629 74.748C294.66 74.6844 294.723 74.6844 294.784 74.6844H294.94C295.095 74.6844 295.158 74.809 295.095 74.9032L293.533 76.7146C292.347 78.0885 290.754 79.6812 289.068 79.6812C288.256 79.6812 287.165 78.9332 287.165 78.058C287.165 77.7781 287.289 77.4957 287.539 77.2464L292.189 72.3768Z" fill="#F4F1ED"/>
<path d="M299.68 75.4678C297.807 77.5286 295.528 79.5894 294.686 79.5894C293.719 79.5894 293.281 79.0271 293.281 78.1214C293.281 75.6561 296.965 70.5371 300.899 70.5371C301.461 70.5371 301.865 70.7864 302.023 71.224L302.272 70.7864C302.336 70.6618 302.461 70.5982 302.616 70.5982H304.084C304.209 70.5982 304.239 70.7228 304.178 70.817L300.369 77.5896C300.214 77.839 300.026 78.213 300.026 78.4649C300.026 78.6201 300.12 78.7447 300.339 78.7447C300.652 78.7447 301.713 77.5591 302.649 76.4982L304.178 74.7503C304.209 74.6867 304.272 74.6867 304.303 74.6867H304.491C304.616 74.6867 304.71 74.8114 304.616 74.9055L303.087 76.717C301.901 78.0909 300.527 79.6835 299.308 79.6835C298.871 79.6835 298.123 79.4037 298.123 78.6531C298.123 78.4038 298.217 78.0909 298.403 77.7474L299.682 75.4678H299.68ZM301.084 72.9083C301.209 72.6284 301.334 72.2214 301.334 71.9084C301.334 71.4708 301.115 71.0968 300.492 71.0968C298.494 71.0968 295.248 75.3431 295.248 77.9662C295.248 78.3097 295.342 78.5285 295.561 78.5285C296.06 78.5285 299.4 75.4067 301.087 72.9083H301.084Z" fill="#F4F1ED"/>
<path d="M309.2 72.0663C309.2 71.7228 308.328 71.6923 308.109 71.0053C307.704 71.4429 306.829 72.5649 306.206 73.2849L304.738 74.9692C304.674 75.0328 304.583 75.0328 304.488 74.9997L304.394 74.9361C304.3 74.9056 304.3 74.8115 304.331 74.7479L305.704 73.1883C306.017 72.8448 307.577 71.1911 307.765 70.5983C307.641 68.4433 308.732 67.6953 309.452 67.6953C309.796 67.6953 310.075 67.8836 310.075 68.1635C310.075 68.6011 309.233 69.8503 308.638 70.5372C308.574 70.6619 308.574 70.7865 308.574 70.8807C308.574 71.3793 309.167 71.504 309.854 71.504C310.477 71.504 310.884 71.7839 310.884 72.252C310.884 72.5013 310.729 72.8448 310.416 73.1883C309.198 74.5316 306.076 77.0911 306.076 78.2461C306.076 78.5591 306.045 78.9941 306.638 78.9941C307.262 78.9941 308.386 78.3708 310.009 76.4957L311.538 74.7479C311.569 74.6842 311.632 74.6842 311.694 74.6842H311.849C311.973 74.6842 312.068 74.8089 311.973 74.9031L310.444 76.7145C308.572 78.9 307.134 79.648 306.168 79.648C304.951 79.648 304.514 78.7753 304.514 78.18C304.514 76.1828 307.885 73.7149 309.009 72.4352C309.134 72.28 309.198 72.1553 309.198 72.0612L309.2 72.0663Z" fill="#F4F1ED"/>
<path d="M313.444 68.9748C313.444 68.8807 313.538 68.8196 313.632 68.8196H315.192L317.565 64.8227C317.596 64.759 317.66 64.7285 317.721 64.7285H319.189C319.313 64.7285 319.377 64.8227 319.344 64.9168L317.034 68.8196H319.438C319.532 68.8196 319.593 68.8832 319.593 68.9748V69.13C319.593 69.2241 319.53 69.2852 319.438 69.2852H316.754L312.258 76.9636C311.978 77.4012 311.79 77.9304 311.79 78.3375C311.79 78.7445 311.978 79.0244 312.413 79.0244C313.319 79.0244 314.474 77.5895 315.411 76.4955L316.94 74.7476C316.97 74.684 317.034 74.684 317.064 74.684H317.253C317.377 74.684 317.471 74.8087 317.377 74.9028L315.848 76.7143C314.663 78.0881 313.319 79.6808 311.635 79.6808C310.449 79.6808 310.012 79.0575 310.012 78.3069C310.012 77.8388 310.2 77.3071 310.449 76.872L314.945 69.2852H313.635C313.541 69.2852 313.446 69.2216 313.446 69.13V68.9748H313.444Z" fill="#F4F1ED"/>
<path d="M316.754 79.4649C316.629 79.4649 316.535 79.3708 316.599 79.2767L320.532 72.2521C320.657 72.0028 320.687 71.8476 320.687 71.5652C320.532 71.5652 319.72 72.4073 318.939 73.2825L317.471 74.9668C317.408 75.0304 317.316 75.0304 317.222 74.9973L317.128 74.9337C317.034 74.9032 317.003 74.809 317.064 74.7454L318.438 73.1858C319.499 71.9697 320.842 70.5322 321.748 70.5322C322.28 70.5322 322.529 71.064 322.529 71.5626C322.529 71.812 322.465 72.0613 322.374 72.2496L321.626 73.5904C323 71.9061 324.498 70.5322 325.747 70.5322C326.653 70.5322 326.903 70.9698 326.903 71.499C326.903 71.873 326.747 72.3106 326.59 72.5294L325.997 73.5904C327.401 71.9061 328.9 70.5322 330.118 70.5322C330.991 70.5322 331.273 70.9698 331.273 71.4685C331.273 71.8425 331.085 72.2801 330.93 72.5294L328.088 77.5542C327.964 77.8036 327.808 78.147 327.808 78.4269C327.808 78.6152 327.902 78.7398 328.152 78.7398C328.432 78.7398 329.526 77.5542 330.462 76.4933L331.96 74.7454C332.024 74.6818 332.055 74.6818 332.116 74.6818H332.271C332.426 74.6818 332.49 74.8065 332.426 74.9006L330.866 76.7121C329.711 78.086 328.307 79.6786 327.121 79.6786C326.684 79.6786 325.936 79.3988 325.936 78.6482C325.936 78.3989 326.03 78.086 326.216 77.7425L329.276 72.2496C329.431 71.9697 329.526 71.6873 329.526 71.438C329.526 71.3438 329.495 71.3133 329.462 71.3133C328.058 71.3133 325.155 75.3408 323.407 78.2132L322.75 79.3682C322.72 79.4319 322.656 79.4624 322.595 79.4624H321.127C321.003 79.4624 320.939 79.3682 320.972 79.2741L324.842 72.4048C324.997 72.1249 325.155 71.6873 325.185 71.438C325.185 71.3744 325.155 71.3133 325.122 71.3133C323.529 71.3133 319.939 76.59 318.379 79.3682C318.349 79.4319 318.285 79.4624 318.224 79.4624H316.756L316.754 79.4649Z" fill="#F4F1ED"/>
<path d="M334.2 78.5285C335.854 78.5285 338.009 76.8747 338.945 75.7807L339.851 74.7503C339.882 74.6867 339.945 74.6867 340.006 74.6867H340.161C340.317 74.6867 340.38 74.8114 340.317 74.9055L339.38 75.997C337.788 77.8695 334.979 79.5869 332.982 79.5869C331.671 79.5869 330.766 78.9941 330.766 77.6202C330.766 74.6867 334.544 70.4404 338.134 70.4404C339.258 70.4404 340.037 70.878 340.037 71.5955C340.037 71.7838 339.973 72 339.848 72.2188C338.788 73.9972 335.727 74.8114 333.419 75.1523C333.045 75.9334 332.796 76.7119 332.796 77.2436C332.796 78.1799 333.17 78.5234 334.2 78.5234V78.5285ZM338.009 72.3766C338.197 72.0331 338.289 71.7532 338.289 71.5344C338.289 71.191 338.07 71.0027 337.727 71.0027C336.322 71.0027 334.666 72.8447 333.669 74.6231C335.386 74.4043 337.103 73.9667 338.009 72.3766Z" fill="#F4F1ED"/>
<path d="M339.572 74.9392C339.478 74.9086 339.447 74.8145 339.508 74.7509L340.195 73.9698C341.256 72.7512 343.286 70.5352 344.192 70.5352C344.724 70.5352 344.973 71.0669 344.973 71.5656C344.973 71.8149 344.909 72.0642 344.818 72.2525L343.693 74.2497C345.286 72.283 347.128 70.5352 348.532 70.5352C349.563 70.5352 349.876 71.1585 349.876 71.7513C349.876 72.0642 349.812 72.3441 349.687 72.5324L346.848 77.5572C346.693 77.8065 346.535 78.15 346.535 78.3993C346.535 78.5876 346.629 78.7428 346.909 78.7428C347.189 78.7428 348.25 77.5572 349.189 76.4962L350.718 74.7484C350.748 74.6848 350.812 74.6848 350.873 74.6848H351.028C351.153 74.6848 351.247 74.8094 351.153 74.9036L349.624 76.715C348.438 78.0889 347.064 79.6816 345.846 79.6816C345.408 79.6816 344.66 79.4017 344.66 78.6512C344.66 78.4018 344.754 78.0889 344.94 77.7454L347.937 72.4077C348.031 72.2194 348.092 71.9701 348.092 71.7844C348.092 71.535 348.029 71.3162 347.873 71.3162C346.22 71.3162 342.347 76.654 340.818 79.3712C340.788 79.4348 340.724 79.4653 340.663 79.4653H339.195C339.07 79.4653 338.976 79.3712 339.04 79.2771L342.973 72.2525C343.067 72.0032 343.129 71.848 343.129 71.5656C342.973 71.5656 342.162 72.4077 341.381 73.2829L339.913 74.9672C339.849 75.0308 339.757 75.0308 339.663 74.9977L339.569 74.9341L339.572 74.9392Z" fill="#F4F1ED"/>
<path d="M351.651 68.9748C351.651 68.8807 351.745 68.8196 351.839 68.8196H353.399L355.772 64.8227C355.803 64.759 355.867 64.7285 355.928 64.7285H357.396C357.52 64.7285 357.584 64.8227 357.551 64.9168L355.241 68.8196H357.645C357.739 68.8196 357.8 68.8832 357.8 68.9748V69.13C357.8 69.2241 357.737 69.2852 357.645 69.2852H354.961L350.465 76.9636C350.185 77.4012 349.997 77.9304 349.997 78.3375C349.997 78.7445 350.185 79.0244 350.62 79.0244C351.526 79.0244 352.681 77.5895 353.618 76.4955L355.147 74.7476C355.177 74.684 355.241 74.684 355.271 74.684H355.46C355.584 74.684 355.678 74.8087 355.584 74.9028L354.055 76.7143C352.87 78.0881 351.526 79.6808 349.842 79.6808C348.656 79.6808 348.219 79.0575 348.219 78.3069C348.219 77.8388 348.407 77.3071 348.656 76.872L353.152 69.2852H351.842C351.748 69.2852 351.653 69.2216 351.653 69.13V68.9748H351.651Z" fill="#F4F1ED"/>
<path d="M357.082 78.8721C358.207 78.5922 358.642 77.31 358.642 76.4068C358.642 75.7504 358.487 75.066 358.362 74.379C358.207 73.631 358.113 72.9441 358.113 72.1936C357.8 72.5065 357.456 72.911 357.146 73.285L355.647 74.9693C355.584 75.0329 355.492 75.0329 355.428 74.9998L355.304 74.9362C355.21 74.9057 355.21 74.8115 355.273 74.7479L356.617 73.1884C356.741 73.0637 356.866 72.9085 356.96 72.7838C357.583 72.0663 358.27 71.2853 358.927 70.7866C359.207 70.4432 359.55 70.2549 359.894 70.2549C359.988 70.2549 360.298 70.3185 360.298 70.4432V70.5068C360.018 71.0385 359.924 71.5677 359.924 72.0994C359.924 72.7228 360.049 73.3156 360.173 73.9109C360.298 74.5037 360.423 75.0965 360.423 75.6893C360.423 76.4068 360.173 77.0632 359.766 77.656C360.359 77.282 360.891 76.8749 361.234 76.5009L362.733 74.753C362.763 74.6894 362.827 74.6894 362.888 74.6894H363.043C363.198 74.6894 363.262 74.8141 363.198 74.9082L361.639 76.7197C360.858 77.656 359.265 78.6864 357.642 79.2181C356.8 79.5616 356.049 79.6557 355.144 79.6557C353.833 79.5616 353.332 78.9077 353.332 78.3149C353.332 77.8163 353.737 77.3481 354.393 77.3481C355.205 77.3481 355.266 77.7221 355.299 78.1292C355.362 78.9103 356.047 78.9408 356.703 78.9408C356.797 78.9103 356.983 78.8772 357.077 78.8772L357.082 78.8721Z" fill="#F4F1ED"/>
</svg>
