<svg width="32" height="22" viewBox="0 0 32 22" fill="none" xmlns="http://www.w3.org/2000/svg">
<g clip-path="url(#clip0_592_662)">
<rect width="32" height="22" fill="#3E3E3E"/>
<path d="M30.9127 8.6748V9.37771H22.2012C22.2091 9.25975 22.2115 9.14179 22.2115 9.02626C22.2115 8.91073 22.2091 8.78912 22.2012 8.6748H30.9127Z" fill="white"/>
<path d="M30.44 1.08691L21.5448 6.22253C21.4445 6.01883 21.3265 5.81453 21.1934 5.61569L29.0354 1.08691H30.44Z" fill="white"/>
<path d="M20.9733 1.08691L19.3991 3.81707C19.2051 3.68756 18.999 3.56959 18.791 3.46683L20.1664 1.08691H20.9733Z" fill="white"/>
<path d="M16.3338 1.08691V2.80588C16.2286 2.80102 16.1051 2.79554 15.9823 2.79554C15.8595 2.79554 15.7421 2.80041 15.6309 2.80588V1.08691H16.3338Z" fill="white"/>
<path d="M13.1801 3.46683C12.9648 3.57324 12.7593 3.6912 12.5696 3.81707L10.9941 1.08691H11.8053L13.1807 3.46683H13.1801Z" fill="white"/>
<path d="M10.7721 5.61204V5.61326C10.645 5.80844 10.527 6.01336 10.423 6.22131L1.52539 1.08691H2.93182L10.7721 5.61204Z" fill="white"/>
<path d="M9.7513 9.02626C9.7513 9.14787 9.75616 9.26887 9.76164 9.37771H1.08594V8.6748H9.76164C9.75677 8.78 9.7513 8.90039 9.7513 9.02626Z" fill="white"/>
<path d="M21.5725 9.02611C21.5725 9.14286 21.5688 9.25961 21.5609 9.37757C21.4685 10.863 20.7936 12.1922 19.7635 13.1378L16.0033 9.37878L12.2249 13.1572C11.1833 12.2068 10.5005 10.8709 10.408 9.37757C10.4013 9.25961 10.3965 9.14286 10.3965 9.02611C10.3965 8.90937 10.4013 8.7914 10.408 8.67466C10.4555 7.91398 10.6567 7.19162 10.9814 6.54343C11.0854 6.33305 11.2022 6.12874 11.3305 5.93417H11.3329C11.7433 5.31578 12.2748 4.78434 12.8931 4.3739C13.0871 4.24317 13.2908 4.12642 13.5024 4.02366C14.1506 3.69775 14.8724 3.49648 15.6336 3.44905C15.7504 3.44236 15.8671 3.4375 15.9851 3.4375C16.1031 3.4375 16.2186 3.44236 16.3353 3.44905C17.0972 3.49648 17.8208 3.69775 18.4702 4.02366C18.6806 4.12642 18.8849 4.24317 19.0783 4.37269V4.3739C19.6942 4.78677 20.2263 5.31821 20.6385 5.9366C20.7693 6.13178 20.8872 6.33305 20.99 6.54343C21.3159 7.19162 21.5147 7.91398 21.5609 8.67466C21.5688 8.7914 21.5725 8.90937 21.5725 9.02611Z" fill="white"/>
<path d="M32 20.8662H0V21.5691H32V20.8662Z" fill="white"/>
<path d="M30.9115 14.7663V20.4807H25.768L27.186 18.5137H23.8387L26.5159 17.1888L25.5947 15.9276L26.6868 13.5678L26.443 11.2906L26.4314 11.2791L21.9397 15.772L21.7123 15.9982L21.2161 16.4968L17.2322 20.4807H15.3296L16.7476 18.5137H13.4002L16.0775 17.1888L15.1563 15.9276L16.2483 13.5678L16.0586 11.7923L16.0033 11.2827L15.9997 11.2791L13.866 13.4152L13.3437 13.9351L11.2806 16.0006L10.7844 16.4968L6.80042 20.4807H4.89113L6.30911 18.5137H2.96178L5.63965 17.1888L4.71845 15.9276L5.8099 13.5678L5.56607 11.2791L1.08594 15.7604V14.7651L5.56607 10.2861L10.5545 15.277L10.7813 15.5038L15.9997 10.2861L18.7736 13.0589L19.2764 13.5629L21.2161 15.5014L21.4429 15.2758L26.4314 10.2861L30.9115 14.7663Z" fill="white"/>
<path d="M0 0V21.5695H32V0H0ZM0.703517 20.8666V0.702909H31.2989V20.8659H0.703517V20.8666Z" fill="white"/>
</g>
<defs>
<clipPath id="clip0_592_662">
<rect width="32" height="22" fill="white"/>
</clipPath>
</defs>
</svg>
